<svg width="54" height="54" viewBox="0 0 54 54" fill="none" xmlns="http://www.w3.org/2000/svg">
<g filter="url(#filter0_d_565_292)">
<path d="M23.6269 28.4721C20.9933 28.4721 18.4223 28.4748 15.8514 28.4708C14.9503 28.4695 14.3138 28.0192 14.1091 27.2577C13.9573 26.6961 14.1732 26.2273 14.5032 25.7757C16.9795 22.3839 19.4502 18.9895 21.9222 15.5951C24.3651 12.2418 26.8051 8.88711 29.2494 5.53509C29.773 4.81727 30.4304 4.54709 31.1532 4.73383C32.1587 4.99474 32.6128 5.86883 32.2771 6.93496C31.4081 9.70028 30.5334 12.4643 29.6602 15.2283C29.156 16.8242 28.6491 18.4187 28.1463 20.0146C28.0976 20.1696 28.0628 20.3285 28.007 20.5417H28.6101C30.9039 20.5417 33.1977 20.5391 35.4929 20.5417C37.128 20.5444 37.8856 21.7509 37.089 23.0991C32.156 31.4454 27.2174 39.7877 22.2844 48.1327C21.9 48.7829 21.3526 49.1524 20.549 49.0809C19.8513 49.0187 19.2775 48.5432 19.1285 47.8784C19.07 47.6148 19.0811 47.3155 19.1452 47.0506C20.5894 41.0525 22.0462 35.0557 23.4988 29.0602C23.542 28.884 23.5768 28.7066 23.6269 28.4721Z" fill="#FBE592"/>
</g>
<g filter="url(#filter1_d_565_292)">
<path d="M44.9284 14.1934C45.1624 14.5457 45.356 14.8318 45.544 15.1218C53.7652 27.7843 47.0607 44.2093 32.0054 48.2778C30.0402 48.8089 28.0319 49.0658 25.9902 49.0897C24.8496 49.1029 24.0724 48.4619 24.071 47.5097C24.0697 46.572 24.812 45.9575 25.9303 45.9151C34.0095 45.6079 40.0678 42.0956 43.6708 35.2326C46.9395 29.0067 46.4228 22.7781 42.6973 16.7945C42.6458 16.7111 42.5789 16.6343 42.4215 16.425C42.4215 16.8237 42.4285 17.0912 42.4215 17.3574C42.3923 18.2765 41.6541 18.9665 40.7252 18.9519C39.8199 18.9374 39.0999 18.2474 39.0915 17.3481C39.0776 15.7787 39.079 14.2093 39.0915 12.6399C39.0985 11.7075 39.7879 11.0361 40.7614 11.0268C42.4299 11.0109 44.0984 11.0109 45.7654 11.0268C46.7069 11.0361 47.4242 11.7393 47.4284 12.6015C47.4311 13.4849 46.7 14.1709 45.7278 14.1921C45.4897 14.1974 45.2529 14.1921 44.9298 14.1921L44.9284 14.1934Z" fill="#FBE592"/>
</g>
<g filter="url(#filter2_d_565_292)">
<path d="M9.05454 37.3628C9.05454 36.9363 9.04618 36.6609 9.05593 36.3854C9.08936 35.4928 9.81497 34.816 10.7286 34.82C11.6158 34.8239 12.3692 35.4901 12.3818 36.3523C12.4054 37.972 12.404 39.5917 12.3818 41.2101C12.3692 42.0763 11.6534 42.7358 10.7356 42.7451C9.05036 42.761 7.36378 42.7636 5.67859 42.7438C4.74825 42.7332 4.03657 42.0021 4.0505 41.1386C4.06442 40.2923 4.76496 39.6182 5.67998 39.5811C5.95017 39.5705 6.22175 39.5798 6.48219 39.5798C5.82343 38.4316 5.0839 37.3628 4.5658 36.2053C0.716325 27.6219 1.83886 19.6425 8.06571 12.4299C11.4403 8.52163 15.8844 6.13773 21.1002 5.14047C22.5723 4.85838 24.0945 4.79083 25.5987 4.69283C26.6195 4.62661 27.38 5.32456 27.405 6.22117C27.4301 7.14162 26.6892 7.83162 25.6391 7.85016C19.9373 7.95612 15.0627 9.91886 11.1645 13.8761C7.11587 17.987 5.3499 22.9084 5.80254 28.5318C6.05184 31.6202 7.08663 34.4637 8.8331 37.0741C8.86931 37.1297 8.91388 37.18 9.05315 37.3615L9.05454 37.3628Z" fill="#FBE592"/>
</g>
<defs>
<filter id="filter0_d_565_292" x="11.9596" y="2.57651" width="27.5481" height="48.6131" filterUnits="userSpaceOnUse" color-interpolation-filters="sRGB">
<feFlood flood-opacity="0" result="BackgroundImageFix"/>
<feColorMatrix in="SourceAlpha" type="matrix" values="0 0 0 0 0 0 0 0 0 0 0 0 0 0 0 0 0 0 127 0" result="hardAlpha"/>
<feOffset/>
<feGaussianBlur stdDeviation="1.05"/>
<feComposite in2="hardAlpha" operator="out"/>
<feColorMatrix type="matrix" values="0 0 0 0 1 0 0 0 0 0.54974 0 0 0 0 0.241667 0 0 0 1 0"/>
<feBlend mode="normal" in2="BackgroundImageFix" result="effect1_dropShadow_565_292"/>
<feBlend mode="normal" in="SourceGraphic" in2="effect1_dropShadow_565_292" result="shape"/>
</filter>
<filter id="filter1_d_565_292" x="21.971" y="8.91489" width="29.2208" height="42.275" filterUnits="userSpaceOnUse" color-interpolation-filters="sRGB">
<feFlood flood-opacity="0" result="BackgroundImageFix"/>
<feColorMatrix in="SourceAlpha" type="matrix" values="0 0 0 0 0 0 0 0 0 0 0 0 0 0 0 0 0 0 127 0" result="hardAlpha"/>
<feOffset/>
<feGaussianBlur stdDeviation="1.05"/>
<feComposite in2="hardAlpha" operator="out"/>
<feColorMatrix type="matrix" values="0 0 0 0 1 0 0 0 0 0.54974 0 0 0 0 0.241667 0 0 0 1 0"/>
<feBlend mode="normal" in2="BackgroundImageFix" result="effect1_dropShadow_565_292"/>
<feBlend mode="normal" in="SourceGraphic" in2="effect1_dropShadow_565_292" result="shape"/>
</filter>
<filter id="filter2_d_565_292" x="0.238135" y="2.58848" width="29.2675" height="42.2693" filterUnits="userSpaceOnUse" color-interpolation-filters="sRGB">
<feFlood flood-opacity="0" result="BackgroundImageFix"/>
<feColorMatrix in="SourceAlpha" type="matrix" values="0 0 0 0 0 0 0 0 0 0 0 0 0 0 0 0 0 0 127 0" result="hardAlpha"/>
<feOffset/>
<feGaussianBlur stdDeviation="1.05"/>
<feComposite in2="hardAlpha" operator="out"/>
<feColorMatrix type="matrix" values="0 0 0 0 1 0 0 0 0 0.54974 0 0 0 0 0.241667 0 0 0 1 0"/>
<feBlend mode="normal" in2="BackgroundImageFix" result="effect1_dropShadow_565_292"/>
<feBlend mode="normal" in="SourceGraphic" in2="effect1_dropShadow_565_292" result="shape"/>
</filter>
</defs>
</svg>
