<svg width="56" height="56" viewBox="0 0 56 56" fill="none" xmlns="http://www.w3.org/2000/svg">
<g filter="url(#filter0_d_565_294)">
<path d="M35.1232 3C35.9048 3 36.6865 3 37.4669 3C37.8514 3.05761 38.2335 3.12148 38.6193 3.17283C44.7635 3.99189 50.106 8.8236 51.5265 14.8726C51.7319 15.748 51.8447 16.6448 52 17.5314V19.8747C51.9211 20.3643 51.8572 20.8565 51.762 21.3425C50.7386 26.5599 47.8525 30.3709 43.1075 32.768C42.8545 32.8957 42.7392 33.0385 42.7167 33.3278C42.6716 33.9026 42.6052 34.4787 42.5012 35.0461C40.4857 45.9331 29.9485 52.9251 19.1733 50.5293C10.6791 48.6395 4.38461 41.2028 4.02009 32.525C3.78585 26.9619 5.59967 22.1127 9.47409 18.0975C12.8011 14.6497 16.8885 12.716 21.6686 12.2827C21.9905 12.2539 22.1195 12.1036 22.2485 11.8481C24.4557 7.46726 27.933 4.6519 32.6943 3.44961C33.491 3.24797 34.3127 3.14778 35.1232 3ZM20.7591 16.1814C20.6639 16.1939 20.5086 16.2089 20.357 16.2377C11.9506 17.8433 6.26608 26.4008 8.06111 34.7468C9.91251 43.3582 18.1749 48.7434 26.7756 46.8636C34.6622 45.1391 39.9922 37.7512 38.9199 29.6545C38.1708 23.9938 35.0956 19.9035 29.9648 17.3761C28.8938 16.8489 28.4666 15.8157 28.9276 14.8238C29.3861 13.8382 30.4871 13.4674 31.5519 13.9822C36.9984 16.6134 40.5396 20.8465 42.1643 26.6726C42.3509 27.3439 42.4762 28.0315 42.6378 28.7416C42.773 28.6602 42.8833 28.6025 42.9822 28.5324C46.784 25.8022 48.6116 22.1014 48.1619 17.435C47.5005 10.5794 41.1534 5.78656 34.3904 6.92122C29.4687 7.7478 25.5943 11.5162 24.6448 16.3993C23.6978 21.2736 25.935 26.2418 30.2404 28.8317C31.3615 29.5055 32.5715 29.9401 33.8329 30.2682C34.7173 30.4987 35.2522 31.2676 35.2146 32.1493C35.1783 33.0109 34.5419 33.7812 33.6638 33.8926C33.2129 33.949 32.7256 33.8826 32.2797 33.7724C30.5585 33.3478 29.0391 32.4862 27.5798 31.5118C23.4987 28.7879 21.2602 24.9481 20.7792 20.0963C20.6527 18.8176 20.7604 17.5164 20.7604 16.1839L20.7591 16.1814Z" fill="#EFFFFD"/>
</g>
<defs>
<filter id="filter0_d_565_294" x="0" y="0" width="56" height="56" filterUnits="userSpaceOnUse" color-interpolation-filters="sRGB">
<feFlood flood-opacity="0" result="BackgroundImageFix"/>
<feColorMatrix in="SourceAlpha" type="matrix" values="0 0 0 0 0 0 0 0 0 0 0 0 0 0 0 0 0 0 127 0" result="hardAlpha"/>
<feOffset dy="1"/>
<feGaussianBlur stdDeviation="2"/>
<feComposite in2="hardAlpha" operator="out"/>
<feColorMatrix type="matrix" values="0 0 0 0 0.333333 0 0 0 0 0.815686 0 0 0 0 0.74902 0 0 0 1 0"/>
<feBlend mode="normal" in2="BackgroundImageFix" result="effect1_dropShadow_565_294"/>
<feBlend mode="normal" in="SourceGraphic" in2="effect1_dropShadow_565_294" result="shape"/>
</filter>
</defs>
</svg>
