<svg width="55" height="38" viewBox="0 0 55 38" fill="none" xmlns="http://www.w3.org/2000/svg">
<path d="M41.6667 14.5737H12.3334C11.3716 14.5737 10.5919 15.3421 10.5919 16.29V30.0534C10.5919 31.0012 11.3716 31.7697 12.3334 31.7697H41.6667C42.6285 31.7697 43.4082 31.0012 43.4082 30.0534V16.29C43.4082 15.3421 42.6285 14.5737 41.6667 14.5737Z" fill="#C95555" stroke="#992929" stroke-linecap="round" stroke-linejoin="round"/>
<path d="M30.3493 13.2241H23.913V31.7649H30.3493V13.2241Z" fill="#09A880" stroke="#016A4F" stroke-miterlimit="10"/>
<path d="M44.7441 7.99512H9.25589C8.29409 7.99512 7.5144 8.76353 7.5144 9.71142V14.3525C7.5144 15.3004 8.29409 16.0688 9.25589 16.0688H44.7441C45.7059 16.0688 46.4856 15.3004 46.4856 14.3525V9.71142C46.4856 8.76353 45.7059 7.99512 44.7441 7.99512Z" fill="#E57777" stroke="#AA4848" stroke-linecap="round" stroke-linejoin="round"/>
<path d="M35.7742 19.8871C35.4545 19.2429 35.0156 18.547 34.5241 17.8652H34.61C34.2903 17.4137 33.9086 16.9153 33.4363 16.3557C32.7158 15.5046 31.962 14.7241 31.2272 14.0564C30.4638 13.5626 29.772 13.0501 29.1995 12.5705C28.6222 13.0877 27.9256 13.4451 27.1622 13.5862C26.4656 13.5109 25.8119 13.2664 25.2441 12.8761C25.0724 12.768 24.9149 12.6457 24.7718 12.5046C24.767 12.4999 24.7575 12.4952 24.7527 12.4858C23.4979 13.3181 22.0093 14.6818 20.6256 16.3087C19.6857 17.4184 19.075 18.3166 18.7028 18.9796C18.4404 19.4451 18.2877 19.8025 18.2257 20.0282C18.4547 20.0799 18.6933 20.1034 18.9366 20.1034C19.3469 20.1034 19.6237 20.0282 19.6237 20.0282C19.8384 19.9623 20.0626 19.9294 20.2869 19.9294C21.5417 19.9294 22.5007 20.9686 22.5675 22.4028C22.5961 22.9435 22.6438 23.489 22.7106 23.9827C22.744 24.246 22.7822 24.4999 22.8204 24.7162C22.8347 24.6692 22.8538 24.6222 22.8729 24.5705C23.5695 22.5485 24.5523 20.5078 25.4207 18.7068C26.0314 17.442 26.6087 16.2335 27.0333 15.1614C27.4532 16.2429 28.0353 17.4655 28.6556 18.7445C29.3235 20.1269 30.0583 21.6551 30.6785 23.2068C30.8408 22.605 31.1652 22.1112 31.6137 21.7915C31.9 20.7053 32.7349 19.967 33.7894 19.967C33.9134 19.967 34.0422 19.9811 34.1663 19.9999C34.2617 20.0141 34.3619 20.0376 34.4573 20.0658C34.4573 20.0658 34.7293 20.141 35.1396 20.141C35.3782 20.141 35.6167 20.1175 35.8505 20.0658C35.8362 20.0141 35.8123 19.9435 35.7885 19.8777L35.7742 19.8871Z" fill="#13D4A3" stroke="#00795A" stroke-width="3" stroke-linecap="round" stroke-linejoin="round"/>
<path d="M31.2272 14.0608C30.4638 13.5671 29.772 13.0546 29.1995 12.575C28.4647 13.2333 27.5391 13.6376 26.5276 13.6659C26.5467 13.7458 26.5658 13.8257 26.5896 13.9104C26.6707 14.2019 26.7709 14.5076 26.8902 14.832C27.3912 14.6439 27.854 14.3618 28.2595 13.9997C28.8321 14.4793 29.5239 14.9919 30.2873 15.4856C31.0221 16.1533 31.7711 16.9339 32.4964 17.785C33.2454 18.6643 33.775 19.4072 34.1567 20.0138C34.2522 20.0279 34.3524 20.0514 34.4478 20.0797C34.4478 20.0797 34.7197 20.1549 35.1301 20.1549C35.3686 20.1549 35.6072 20.1314 35.841 20.0797C35.8267 20.0279 35.8028 19.9574 35.7789 19.8916C35.4593 19.2474 35.0203 18.5514 34.5289 17.8696H34.6148C34.2951 17.4182 33.9134 16.9198 33.4411 16.3602C32.7206 15.5091 31.9668 14.7333 31.232 14.0608H31.2272Z" fill="#0FEBB3"/>
<path d="M22.8681 24.5798C23.5647 22.5578 24.5476 20.5171 25.4159 18.7161C26.2891 16.9105 27.1097 15.1989 27.4723 13.8729C27.4962 13.7882 27.5153 13.7083 27.5344 13.6283C26.6946 13.6189 25.9169 13.3462 25.249 12.8854C25.0772 12.7772 24.9197 12.655 24.7766 12.5139C24.7718 12.5092 24.7623 12.5045 24.7575 12.4951C23.5027 13.3274 22.0141 14.691 20.6304 16.318C19.6905 17.4277 19.0798 18.3258 18.7076 18.9888C18.9891 18.608 19.3136 18.1942 19.6953 17.7428C21.0789 16.1158 22.5675 14.7522 23.8224 13.9199C24.581 14.6158 25.5495 15.039 26.604 15.0531C26.5849 15.133 26.5658 15.213 26.542 15.2976C26.1793 16.6236 25.3587 18.3352 24.4856 20.1409C23.9082 21.3399 23.2785 22.6519 22.7154 23.9873C22.7488 24.2506 22.787 24.5045 22.8252 24.7208C22.8395 24.6738 22.8586 24.6268 22.8777 24.5751L22.8681 24.5798Z" fill="#0FEBB3"/>
<path d="M30.2921 15.4856C29.5287 14.9919 28.8369 14.4794 28.2644 13.9998C27.8588 14.3618 27.396 14.644 26.895 14.832C27.3197 15.9888 27.9685 17.3383 28.6508 18.7537C29.3188 20.1361 30.0536 21.6643 30.6738 23.2161C30.836 22.6142 31.1605 22.1204 31.609 21.8007C31.8952 20.7145 32.7302 19.9762 33.7846 19.9762C33.9087 19.9762 34.0375 19.9904 34.1616 20.0092C33.7846 19.4026 33.2503 18.6596 32.5012 17.7803C31.7807 16.9292 31.0269 16.1534 30.2921 15.4809V15.4856Z" fill="#13D4A3"/>
<path d="M26.5371 15.2977C26.561 15.213 26.5801 15.1331 26.5992 15.0532C25.5447 15.039 24.5762 14.6158 23.8176 13.9199C22.5627 14.7522 21.0741 16.1158 19.6905 17.7428C19.3088 18.1942 18.9843 18.608 18.7028 18.9889C18.4404 19.4544 18.2877 19.8118 18.2257 20.0375C18.4547 20.0892 18.6933 20.1127 18.9366 20.1127C19.3469 20.1127 19.6237 20.0375 19.6237 20.0375C19.8384 19.9716 20.0626 19.9387 20.2869 19.9387C21.5417 19.9387 22.5007 20.9779 22.5675 22.4121C22.5914 22.9528 22.6438 23.4983 22.7106 23.992C23.2736 22.6519 23.9034 21.3447 24.4808 20.1456C25.3539 18.34 26.1745 16.6284 26.5371 15.3024V15.2977Z" fill="#13D4A3"/>
<path d="M38.6608 3.19428C36.509 2.12218 31.9668 3.79146 29.0659 5.66294C29.2043 5.85102 29.3283 6.05322 29.4381 6.26012C29.8055 6.94193 30.0106 7.7178 30.0106 8.54538V10.7272C30.0106 11.5971 29.7768 12.4106 29.376 13.1206C30.1204 13.5767 30.8313 14.0987 31.4467 14.5924C34.0375 16.0454 37.0338 17.0046 38.7181 16.1912C38.9518 16.0783 39.1618 15.9325 39.3383 15.7491C40.0254 15.0391 39.8107 13.7037 39.6055 12.4153C39.491 11.6959 39.3812 11.0187 39.4051 10.3792C39.4337 9.61748 39.5721 8.89805 39.7105 8.19742C39.8441 7.5109 39.9729 6.85729 39.9872 6.20839C39.9872 6.20839 39.9872 6.20369 39.9872 6.19899V6.18018C40.0158 4.63316 39.5816 3.6551 38.656 3.19428H38.6608Z" fill="#13D4A3" stroke="#00795A" stroke-width="3" stroke-linecap="round" stroke-linejoin="round"/>
<path d="M24.6573 5.63955C21.7707 3.71635 17.0711 1.94362 14.8668 3.04394C14.2847 3.33547 13.8983 3.8292 13.6979 4.54394C13.5786 4.96243 13.5261 5.45616 13.5356 6.02983V6.04864C13.5356 6.04864 13.5356 6.05334 13.5356 6.05804C13.55 6.70694 13.6788 7.36055 13.8124 8.04707C13.946 8.74299 14.0891 9.46713 14.1177 10.2289C14.1416 10.8684 14.0318 11.5502 13.9173 12.2649C13.7122 13.5533 13.4975 14.8888 14.1845 15.5988C15.8306 17.2963 19.9768 15.8245 23.1019 13.8308C23.5599 13.5392 23.9989 13.2336 24.4044 12.9232C24.018 12.2273 23.7985 11.4279 23.7985 10.5769V8.39503C23.7985 7.37466 24.1134 6.42952 24.6525 5.63955H24.6573Z" fill="#13D4A3" stroke="#00795A" stroke-width="3" stroke-linecap="round" stroke-linejoin="round"/>
<path d="M37.6064 4.61911C38.532 5.07993 38.9662 6.05798 38.9375 7.60501V7.62382C38.9375 7.62382 38.9375 7.62852 38.9375 7.63322C38.9232 8.28212 38.7944 8.93573 38.6608 9.62225C38.5272 10.3182 38.3841 11.0423 38.3555 11.8041C38.3316 12.4436 38.4413 13.1254 38.5558 13.8401C38.6894 14.663 38.8183 15.5047 38.7181 16.1865C38.9519 16.0737 39.1618 15.9279 39.3383 15.7445C40.0254 15.0345 39.8107 13.699 39.6055 12.4106C39.491 11.6912 39.3813 11.0141 39.4051 10.3746C39.4337 9.61284 39.5721 8.89341 39.7105 8.19278C39.8441 7.50626 39.9729 6.85266 39.9872 6.20375C39.9872 6.20375 39.9872 6.19905 39.9872 6.19435V6.17554C40.0158 4.62852 39.5816 3.65046 38.656 3.18965C36.5042 2.11755 31.962 3.78682 29.0612 5.6583C29.1995 5.84639 29.3236 6.04858 29.4333 6.25548C32.234 4.76958 35.7742 3.70689 37.6016 4.61911H37.6064Z" fill="#42EABF"/>
<path d="M38.5559 13.8401C38.4414 13.1207 38.3316 12.4436 38.3555 11.8041C38.3841 11.0423 38.5225 10.3229 38.6609 9.62228C38.7944 8.93576 38.9233 8.28215 38.9376 7.63325C38.9376 7.63325 38.9376 7.62855 38.9376 7.62385V7.60504C38.9662 6.05802 38.532 5.07996 37.6064 4.61914C35.779 3.70692 32.2436 4.77432 29.4381 6.25551C29.8055 6.93733 30.0107 7.71319 30.0107 8.54077V10.7226C30.0107 11.5925 29.7769 12.406 29.3761 13.116C30.1204 13.5721 30.8313 14.0941 31.4468 14.5878C34.0376 16.0408 37.0339 17 38.7181 16.1865C38.8183 15.5 38.6847 14.663 38.5559 13.8401Z" fill="#13D4A3"/>
<path d="M13.8124 4.46875C16.0167 3.36843 20.7163 5.14116 23.6029 7.06436C23.0637 7.84962 22.7488 8.79947 22.7488 9.81984V12.0017C22.7488 12.6459 22.8777 13.2618 23.1067 13.8261C23.5647 13.5346 24.0037 13.2289 24.4092 12.9186C24.0228 12.2227 23.8033 11.4233 23.8033 10.5722V8.39038C23.8033 7.37 24.1182 6.42486 24.6573 5.63489C21.7707 3.71639 17.0711 1.94367 14.8668 3.04398C14.2847 3.33552 13.8983 3.82925 13.6979 4.54398C13.736 4.52047 13.7742 4.49226 13.8124 4.47345V4.46875Z" fill="#42EABF"/>
<path d="M22.7488 9.81984C22.7488 8.79946 23.0637 7.85432 23.6029 7.06435C20.7163 5.14115 16.0167 3.36843 13.8124 4.46874C13.7694 4.48755 13.736 4.51576 13.6979 4.53927C13.5786 4.95777 13.5261 5.4515 13.5356 6.02517V6.04398C13.5356 6.04398 13.5356 6.04868 13.5356 6.05338C13.55 6.70228 13.6788 7.35589 13.8124 8.04241C13.946 8.73833 14.0891 9.46247 14.1177 10.2242C14.1416 10.8637 14.0318 11.5455 13.9173 12.2603C13.7122 13.5487 13.4975 14.8841 14.1845 15.5941C15.8306 17.2916 19.9768 15.8198 23.1019 13.8261C22.8729 13.2618 22.7441 12.6459 22.7441 12.0017V9.81984H22.7488Z" fill="#13D4A3"/>
<path d="M27.9829 5.38068H26.0124C24.624 5.38068 23.4407 6.25529 22.997 7.47316C22.8729 7.80701 22.8062 8.16438 22.8062 8.54055V10.7224C22.8062 12.4669 24.2471 13.8869 26.0172 13.8869H27.9877C28.7272 13.8869 29.4047 13.6377 29.9486 13.2192C30.7073 12.6409 31.1939 11.738 31.1939 10.7224V8.54055C31.1939 6.79604 29.753 5.37598 27.9829 5.37598V5.38068Z" fill="#13D4A3" stroke="#00795A" stroke-width="3" stroke-linecap="round" stroke-linejoin="round"/>
<path d="M24.9579 6.81033H26.9284C28.6985 6.81033 30.1394 8.23039 30.1394 9.9749V12.1567C30.1394 12.5329 30.0679 12.8903 29.9486 13.2241C30.7072 12.6458 31.1939 11.7429 31.1939 10.7273V8.54544C31.1939 6.80092 29.753 5.38086 27.9829 5.38086H26.0123C24.6239 5.38086 23.4407 6.25547 22.9969 7.47334C23.5409 7.05954 24.2184 6.80562 24.9579 6.80562V6.81033Z" fill="#42EABF"/>
<path d="M30.1395 9.97024C30.1395 8.22573 28.6986 6.80566 26.9285 6.80566H24.958C24.2184 6.80566 23.5409 7.05488 22.997 7.47338C22.8729 7.80723 22.8062 8.1646 22.8062 8.54077V10.7226C22.8062 12.4671 24.2471 13.8872 26.0172 13.8872H27.9877C28.7272 13.8872 29.4047 13.638 29.9486 13.2195C30.0727 12.8856 30.1395 12.5282 30.1395 12.1521V9.97024Z" fill="#13D4A3"/>
<mask id="path-18-outside-1_758_27" maskUnits="userSpaceOnUse" x="-1" y="26" width="56" height="12" fill="black">
<rect fill="white" x="-1" y="26" width="56" height="12"/>
<path d="M5.19 28.98V30.35H2.33V31.83H4.47V33.16H2.33V36H0.62V28.98H5.19ZM7.79875 31.35C7.99875 31.0433 8.24875 30.8033 8.54875 30.63C8.84875 30.45 9.18208 30.36 9.54875 30.36V32.17H9.07875C8.65208 32.17 8.33208 32.2633 8.11875 32.45C7.90542 32.63 7.79875 32.95 7.79875 33.41V36H6.08875V30.42H7.79875V31.35ZM15.6261 33.12C15.6261 33.28 15.6161 33.4467 15.5961 33.62H11.7261C11.7528 33.9667 11.8628 34.2333 12.0561 34.42C12.2561 34.6 12.4994 34.69 12.7861 34.69C13.2128 34.69 13.5094 34.51 13.6761 34.15H15.4961C15.4028 34.5167 15.2328 34.8467 14.9861 35.14C14.7461 35.4333 14.4428 35.6633 14.0761 35.83C13.7094 35.9967 13.2994 36.08 12.8461 36.08C12.2994 36.08 11.8128 35.9633 11.3861 35.73C10.9594 35.4967 10.6261 35.1633 10.3861 34.73C10.1461 34.2967 10.0261 33.79 10.0261 33.21C10.0261 32.63 10.1428 32.1233 10.3761 31.69C10.6161 31.2567 10.9494 30.9233 11.3761 30.69C11.8028 30.4567 12.2928 30.34 12.8461 30.34C13.3861 30.34 13.8661 30.4533 14.2861 30.68C14.7061 30.9067 15.0328 31.23 15.2661 31.65C15.5061 32.07 15.6261 32.56 15.6261 33.12ZM13.8761 32.67C13.8761 32.3767 13.7761 32.1433 13.5761 31.97C13.3761 31.7967 13.1261 31.71 12.8261 31.71C12.5394 31.71 12.2961 31.7933 12.0961 31.96C11.9028 32.1267 11.7828 32.3633 11.7361 32.67H13.8761ZM21.7882 33.12C21.7882 33.28 21.7782 33.4467 21.7582 33.62H17.8882C17.9149 33.9667 18.0249 34.2333 18.2182 34.42C18.4182 34.6 18.6615 34.69 18.9482 34.69C19.3749 34.69 19.6715 34.51 19.8382 34.15H21.6582C21.5649 34.5167 21.3949 34.8467 21.1482 35.14C20.9082 35.4333 20.6049 35.6633 20.2382 35.83C19.8715 35.9967 19.4615 36.08 19.0082 36.08C18.4615 36.08 17.9749 35.9633 17.5482 35.73C17.1215 35.4967 16.7882 35.1633 16.5482 34.73C16.3082 34.2967 16.1882 33.79 16.1882 33.21C16.1882 32.63 16.3049 32.1233 16.5382 31.69C16.7782 31.2567 17.1115 30.9233 17.5382 30.69C17.9649 30.4567 18.4549 30.34 19.0082 30.34C19.5482 30.34 20.0282 30.4533 20.4482 30.68C20.8682 30.9067 21.1949 31.23 21.4282 31.65C21.6682 32.07 21.7882 32.56 21.7882 33.12ZM20.0382 32.67C20.0382 32.3767 19.9382 32.1433 19.7382 31.97C19.5382 31.7967 19.2882 31.71 18.9882 31.71C18.7015 31.71 18.4582 31.7933 18.2582 31.96C18.0649 32.1267 17.9449 32.3633 17.8982 32.67H20.0382ZM25.6695 29.84C25.3695 29.84 25.1228 29.7533 24.9295 29.58C24.7428 29.4 24.6495 29.18 24.6495 28.92C24.6495 28.6533 24.7428 28.4333 24.9295 28.26C25.1228 28.08 25.3695 27.99 25.6695 27.99C25.9628 27.99 26.2028 28.08 26.3895 28.26C26.5828 28.4333 26.6795 28.6533 26.6795 28.92C26.6795 29.18 26.5828 29.4 26.3895 29.58C26.2028 29.7533 25.9628 29.84 25.6695 29.84ZM26.5195 30.42V36H24.8095V30.42H26.5195ZM30.8687 34.55V36H29.9987C29.3787 36 28.8953 35.85 28.5487 35.55C28.202 35.2433 28.0287 34.7467 28.0287 34.06V31.84H27.3487V30.42H28.0287V29.06H29.7387V30.42H30.8587V31.84H29.7387V34.08C29.7387 34.2467 29.7787 34.3667 29.8587 34.44C29.9387 34.5133 30.072 34.55 30.2587 34.55H30.8687ZM37.0812 33.12C37.0812 33.28 37.0712 33.4467 37.0512 33.62H33.1812C33.2078 33.9667 33.3178 34.2333 33.5112 34.42C33.7112 34.6 33.9545 34.69 34.2412 34.69C34.6678 34.69 34.9645 34.51 35.1312 34.15H36.9512C36.8578 34.5167 36.6878 34.8467 36.4412 35.14C36.2012 35.4333 35.8978 35.6633 35.5312 35.83C35.1645 35.9967 34.7545 36.08 34.3012 36.08C33.7545 36.08 33.2678 35.9633 32.8412 35.73C32.4145 35.4967 32.0812 35.1633 31.8412 34.73C31.6012 34.2967 31.4812 33.79 31.4812 33.21C31.4812 32.63 31.5978 32.1233 31.8312 31.69C32.0712 31.2567 32.4045 30.9233 32.8312 30.69C33.2578 30.4567 33.7478 30.34 34.3012 30.34C34.8412 30.34 35.3212 30.4533 35.7412 30.68C36.1612 30.9067 36.4878 31.23 36.7212 31.65C36.9612 32.07 37.0812 32.56 37.0812 33.12ZM35.3312 32.67C35.3312 32.3767 35.2312 32.1433 35.0312 31.97C34.8312 31.7967 34.5812 31.71 34.2812 31.71C33.9945 31.71 33.7512 31.7933 33.5512 31.96C33.3578 32.1267 33.2378 32.3633 33.1912 32.67H35.3312ZM45.1033 30.36C45.7966 30.36 46.3466 30.57 46.7533 30.99C47.1666 31.41 47.3733 31.9933 47.3733 32.74V36H45.6733V32.97C45.6733 32.61 45.5766 32.3333 45.3833 32.14C45.1966 31.94 44.9366 31.84 44.6033 31.84C44.2699 31.84 44.0066 31.94 43.8133 32.14C43.6266 32.3333 43.5333 32.61 43.5333 32.97V36H41.8333V32.97C41.8333 32.61 41.7366 32.3333 41.5433 32.14C41.3566 31.94 41.0966 31.84 40.7633 31.84C40.4299 31.84 40.1666 31.94 39.9733 32.14C39.7866 32.3333 39.6933 32.61 39.6933 32.97V36H37.9833V30.42H39.6933V31.12C39.8666 30.8867 40.0933 30.7033 40.3733 30.57C40.6533 30.43 40.9699 30.36 41.3233 30.36C41.7433 30.36 42.1166 30.45 42.4433 30.63C42.7766 30.81 43.0366 31.0667 43.2233 31.4C43.4166 31.0933 43.6799 30.8433 44.0133 30.65C44.3466 30.4567 44.7099 30.36 45.1033 30.36ZM50.8392 36.08C50.3526 36.08 49.9192 35.9967 49.5392 35.83C49.1592 35.6633 48.8592 35.4367 48.6392 35.15C48.4192 34.8567 48.2959 34.53 48.2692 34.17H49.9592C49.9792 34.3633 50.0692 34.52 50.2292 34.64C50.3892 34.76 50.5859 34.82 50.8192 34.82C51.0326 34.82 51.1959 34.78 51.3092 34.7C51.4292 34.6133 51.4892 34.5033 51.4892 34.37C51.4892 34.21 51.4059 34.0933 51.2392 34.02C51.0726 33.94 50.8026 33.8533 50.4292 33.76C50.0292 33.6667 49.6959 33.57 49.4292 33.47C49.1626 33.3633 48.9326 33.2 48.7392 32.98C48.5459 32.7533 48.4492 32.45 48.4492 32.07C48.4492 31.75 48.5359 31.46 48.7092 31.2C48.8892 30.9333 49.1492 30.7233 49.4892 30.57C49.8359 30.4167 50.2459 30.34 50.7192 30.34C51.4192 30.34 51.9692 30.5133 52.3692 30.86C52.7759 31.2067 53.0092 31.6667 53.0692 32.24H51.4892C51.4626 32.0467 51.3759 31.8933 51.2292 31.78C51.0892 31.6667 50.9026 31.61 50.6692 31.61C50.4692 31.61 50.3159 31.65 50.2092 31.73C50.1026 31.8033 50.0492 31.9067 50.0492 32.04C50.0492 32.2 50.1326 32.32 50.2992 32.4C50.4726 32.48 50.7392 32.56 51.0992 32.64C51.5126 32.7467 51.8492 32.8533 52.1092 32.96C52.3692 33.06 52.5959 33.2267 52.7892 33.46C52.9892 33.6867 53.0926 33.9933 53.0992 34.38C53.0992 34.7067 53.0059 35 52.8192 35.26C52.6392 35.5133 52.3759 35.7133 52.0292 35.86C51.6892 36.0067 51.2926 36.08 50.8392 36.08Z"/>
</mask>
<path d="M5.19 28.98V30.35H2.33V31.83H4.47V33.16H2.33V36H0.62V28.98H5.19ZM7.79875 31.35C7.99875 31.0433 8.24875 30.8033 8.54875 30.63C8.84875 30.45 9.18208 30.36 9.54875 30.36V32.17H9.07875C8.65208 32.17 8.33208 32.2633 8.11875 32.45C7.90542 32.63 7.79875 32.95 7.79875 33.41V36H6.08875V30.42H7.79875V31.35ZM15.6261 33.12C15.6261 33.28 15.6161 33.4467 15.5961 33.62H11.7261C11.7528 33.9667 11.8628 34.2333 12.0561 34.42C12.2561 34.6 12.4994 34.69 12.7861 34.69C13.2128 34.69 13.5094 34.51 13.6761 34.15H15.4961C15.4028 34.5167 15.2328 34.8467 14.9861 35.14C14.7461 35.4333 14.4428 35.6633 14.0761 35.83C13.7094 35.9967 13.2994 36.08 12.8461 36.08C12.2994 36.08 11.8128 35.9633 11.3861 35.73C10.9594 35.4967 10.6261 35.1633 10.3861 34.73C10.1461 34.2967 10.0261 33.79 10.0261 33.21C10.0261 32.63 10.1428 32.1233 10.3761 31.69C10.6161 31.2567 10.9494 30.9233 11.3761 30.69C11.8028 30.4567 12.2928 30.34 12.8461 30.34C13.3861 30.34 13.8661 30.4533 14.2861 30.68C14.7061 30.9067 15.0328 31.23 15.2661 31.65C15.5061 32.07 15.6261 32.56 15.6261 33.12ZM13.8761 32.67C13.8761 32.3767 13.7761 32.1433 13.5761 31.97C13.3761 31.7967 13.1261 31.71 12.8261 31.71C12.5394 31.71 12.2961 31.7933 12.0961 31.96C11.9028 32.1267 11.7828 32.3633 11.7361 32.67H13.8761ZM21.7882 33.12C21.7882 33.28 21.7782 33.4467 21.7582 33.62H17.8882C17.9149 33.9667 18.0249 34.2333 18.2182 34.42C18.4182 34.6 18.6615 34.69 18.9482 34.69C19.3749 34.69 19.6715 34.51 19.8382 34.15H21.6582C21.5649 34.5167 21.3949 34.8467 21.1482 35.14C20.9082 35.4333 20.6049 35.6633 20.2382 35.83C19.8715 35.9967 19.4615 36.08 19.0082 36.08C18.4615 36.08 17.9749 35.9633 17.5482 35.73C17.1215 35.4967 16.7882 35.1633 16.5482 34.73C16.3082 34.2967 16.1882 33.79 16.1882 33.21C16.1882 32.63 16.3049 32.1233 16.5382 31.69C16.7782 31.2567 17.1115 30.9233 17.5382 30.69C17.9649 30.4567 18.4549 30.34 19.0082 30.34C19.5482 30.34 20.0282 30.4533 20.4482 30.68C20.8682 30.9067 21.1949 31.23 21.4282 31.65C21.6682 32.07 21.7882 32.56 21.7882 33.12ZM20.0382 32.67C20.0382 32.3767 19.9382 32.1433 19.7382 31.97C19.5382 31.7967 19.2882 31.71 18.9882 31.71C18.7015 31.71 18.4582 31.7933 18.2582 31.96C18.0649 32.1267 17.9449 32.3633 17.8982 32.67H20.0382ZM25.6695 29.84C25.3695 29.84 25.1228 29.7533 24.9295 29.58C24.7428 29.4 24.6495 29.18 24.6495 28.92C24.6495 28.6533 24.7428 28.4333 24.9295 28.26C25.1228 28.08 25.3695 27.99 25.6695 27.99C25.9628 27.99 26.2028 28.08 26.3895 28.26C26.5828 28.4333 26.6795 28.6533 26.6795 28.92C26.6795 29.18 26.5828 29.4 26.3895 29.58C26.2028 29.7533 25.9628 29.84 25.6695 29.84ZM26.5195 30.42V36H24.8095V30.42H26.5195ZM30.8687 34.55V36H29.9987C29.3787 36 28.8953 35.85 28.5487 35.55C28.202 35.2433 28.0287 34.7467 28.0287 34.06V31.84H27.3487V30.42H28.0287V29.06H29.7387V30.42H30.8587V31.84H29.7387V34.08C29.7387 34.2467 29.7787 34.3667 29.8587 34.44C29.9387 34.5133 30.072 34.55 30.2587 34.55H30.8687ZM37.0812 33.12C37.0812 33.28 37.0712 33.4467 37.0512 33.62H33.1812C33.2078 33.9667 33.3178 34.2333 33.5112 34.42C33.7112 34.6 33.9545 34.69 34.2412 34.69C34.6678 34.69 34.9645 34.51 35.1312 34.15H36.9512C36.8578 34.5167 36.6878 34.8467 36.4412 35.14C36.2012 35.4333 35.8978 35.6633 35.5312 35.83C35.1645 35.9967 34.7545 36.08 34.3012 36.08C33.7545 36.08 33.2678 35.9633 32.8412 35.73C32.4145 35.4967 32.0812 35.1633 31.8412 34.73C31.6012 34.2967 31.4812 33.79 31.4812 33.21C31.4812 32.63 31.5978 32.1233 31.8312 31.69C32.0712 31.2567 32.4045 30.9233 32.8312 30.69C33.2578 30.4567 33.7478 30.34 34.3012 30.34C34.8412 30.34 35.3212 30.4533 35.7412 30.68C36.1612 30.9067 36.4878 31.23 36.7212 31.65C36.9612 32.07 37.0812 32.56 37.0812 33.12ZM35.3312 32.67C35.3312 32.3767 35.2312 32.1433 35.0312 31.97C34.8312 31.7967 34.5812 31.71 34.2812 31.71C33.9945 31.71 33.7512 31.7933 33.5512 31.96C33.3578 32.1267 33.2378 32.3633 33.1912 32.67H35.3312ZM45.1033 30.36C45.7966 30.36 46.3466 30.57 46.7533 30.99C47.1666 31.41 47.3733 31.9933 47.3733 32.74V36H45.6733V32.97C45.6733 32.61 45.5766 32.3333 45.3833 32.14C45.1966 31.94 44.9366 31.84 44.6033 31.84C44.2699 31.84 44.0066 31.94 43.8133 32.14C43.6266 32.3333 43.5333 32.61 43.5333 32.97V36H41.8333V32.97C41.8333 32.61 41.7366 32.3333 41.5433 32.14C41.3566 31.94 41.0966 31.84 40.7633 31.84C40.4299 31.84 40.1666 31.94 39.9733 32.14C39.7866 32.3333 39.6933 32.61 39.6933 32.97V36H37.9833V30.42H39.6933V31.12C39.8666 30.8867 40.0933 30.7033 40.3733 30.57C40.6533 30.43 40.9699 30.36 41.3233 30.36C41.7433 30.36 42.1166 30.45 42.4433 30.63C42.7766 30.81 43.0366 31.0667 43.2233 31.4C43.4166 31.0933 43.6799 30.8433 44.0133 30.65C44.3466 30.4567 44.7099 30.36 45.1033 30.36ZM50.8392 36.08C50.3526 36.08 49.9192 35.9967 49.5392 35.83C49.1592 35.6633 48.8592 35.4367 48.6392 35.15C48.4192 34.8567 48.2959 34.53 48.2692 34.17H49.9592C49.9792 34.3633 50.0692 34.52 50.2292 34.64C50.3892 34.76 50.5859 34.82 50.8192 34.82C51.0326 34.82 51.1959 34.78 51.3092 34.7C51.4292 34.6133 51.4892 34.5033 51.4892 34.37C51.4892 34.21 51.4059 34.0933 51.2392 34.02C51.0726 33.94 50.8026 33.8533 50.4292 33.76C50.0292 33.6667 49.6959 33.57 49.4292 33.47C49.1626 33.3633 48.9326 33.2 48.7392 32.98C48.5459 32.7533 48.4492 32.45 48.4492 32.07C48.4492 31.75 48.5359 31.46 48.7092 31.2C48.8892 30.9333 49.1492 30.7233 49.4892 30.57C49.8359 30.4167 50.2459 30.34 50.7192 30.34C51.4192 30.34 51.9692 30.5133 52.3692 30.86C52.7759 31.2067 53.0092 31.6667 53.0692 32.24H51.4892C51.4626 32.0467 51.3759 31.8933 51.2292 31.78C51.0892 31.6667 50.9026 31.61 50.6692 31.61C50.4692 31.61 50.3159 31.65 50.2092 31.73C50.1026 31.8033 50.0492 31.9067 50.0492 32.04C50.0492 32.2 50.1326 32.32 50.2992 32.4C50.4726 32.48 50.7392 32.56 51.0992 32.64C51.5126 32.7467 51.8492 32.8533 52.1092 32.96C52.3692 33.06 52.5959 33.2267 52.7892 33.46C52.9892 33.6867 53.0926 33.9933 53.0992 34.38C53.0992 34.7067 53.0059 35 52.8192 35.26C52.6392 35.5133 52.3759 35.7133 52.0292 35.86C51.6892 36.0067 51.2926 36.08 50.8392 36.08Z" fill="white"/>
<path d="M5.19 28.98H6.19V27.98H5.19V28.98ZM5.19 30.35V31.35H6.19V30.35H5.19ZM2.33 30.35V29.35H1.33V30.35H2.33ZM2.33 31.83H1.33V32.83H2.33V31.83ZM4.47 31.83H5.47V30.83H4.47V31.83ZM4.47 33.16V34.16H5.47V33.16H4.47ZM2.33 33.16V32.16H1.33V33.16H2.33ZM2.33 36V37H3.33V36H2.33ZM0.62 36H-0.38V37H0.62V36ZM0.62 28.98V27.98H-0.38V28.98H0.62ZM4.19 28.98V30.35H6.19V28.98H4.19ZM5.19 29.35H2.33V31.35H5.19V29.35ZM1.33 30.35V31.83H3.33V30.35H1.33ZM2.33 32.83H4.47V30.83H2.33V32.83ZM3.47 31.83V33.16H5.47V31.83H3.47ZM4.47 32.16H2.33V34.16H4.47V32.16ZM1.33 33.16V36H3.33V33.16H1.33ZM2.33 35H0.62V37H2.33V35ZM1.62 36V28.98H-0.38V36H1.62ZM0.62 29.98H5.19V27.98H0.62V29.98ZM7.79875 31.35H6.79875V34.7139L8.63636 31.8963L7.79875 31.35ZM8.54875 30.63L9.04903 31.4959L9.05617 31.4917L9.06325 31.4875L8.54875 30.63ZM9.54875 30.36H10.5487V29.36H9.54875V30.36ZM9.54875 32.17V33.17H10.5487V32.17H9.54875ZM8.11875 32.45L8.76362 33.2143L8.77049 33.2085L8.77726 33.2026L8.11875 32.45ZM7.79875 36V37H8.79875V36H7.79875ZM6.08875 36H5.08875V37H6.08875V36ZM6.08875 30.42V29.42H5.08875V30.42H6.08875ZM7.79875 30.42H8.79875V29.42H7.79875V30.42ZM8.63636 31.8963C8.75557 31.7135 8.89272 31.5862 9.04903 31.4959L8.04847 29.7641C7.60478 30.0205 7.24193 30.3732 6.96114 30.8037L8.63636 31.8963ZM9.06325 31.4875C9.20021 31.4053 9.35423 31.36 9.54875 31.36V29.36C9.00994 29.36 8.49729 29.4947 8.03425 29.7725L9.06325 31.4875ZM8.54875 30.36V32.17H10.5487V30.36H8.54875ZM9.54875 31.17H9.07875V33.17H9.54875V31.17ZM9.07875 31.17C8.5283 31.17 7.9287 31.2875 7.46025 31.6974L8.77726 33.2026C8.75674 33.2205 8.75415 33.213 8.79875 33.2C8.8465 33.1861 8.9351 33.17 9.07875 33.17V31.17ZM7.47388 31.6857C6.92388 32.1498 6.79875 32.8417 6.79875 33.41H8.79875C8.79875 33.2512 8.81793 33.1697 8.82743 33.1412C8.83479 33.1192 8.82425 33.1631 8.76362 33.2143L7.47388 31.6857ZM6.79875 33.41V36H8.79875V33.41H6.79875ZM7.79875 35H6.08875V37H7.79875V35ZM7.08875 36V30.42H5.08875V36H7.08875ZM6.08875 31.42H7.79875V29.42H6.08875V31.42ZM6.79875 30.42V31.35H8.79875V30.42H6.79875ZM15.5961 33.62V34.62H16.4873L16.5895 33.7346L15.5961 33.62ZM11.7261 33.62V32.62H10.6462L10.729 33.6967L11.7261 33.62ZM12.0561 34.42L11.3615 35.1394L11.3741 35.1516L11.3871 35.1633L12.0561 34.42ZM13.6761 34.15V33.15H13.0371L12.7686 33.7299L13.6761 34.15ZM15.4961 34.15L16.4652 34.3967L16.7825 33.15H15.4961V34.15ZM14.9861 35.14L14.2207 34.4963L14.2121 34.5068L14.9861 35.14ZM14.0761 35.83L14.4899 36.7404L14.0761 35.83ZM11.3861 35.73L10.9063 36.6074L11.3861 35.73ZM10.3861 34.73L11.2609 34.2455L10.3861 34.73ZM10.3761 31.69L9.50124 31.2055L9.49562 31.2159L10.3761 31.69ZM11.3761 30.69L11.8559 31.5674L11.3761 30.69ZM14.2861 30.68L13.8112 31.56L13.8112 31.56L14.2861 30.68ZM15.2661 31.65L14.3919 32.1357L14.3979 32.1461L15.2661 31.65ZM13.8761 32.67V33.67H14.8761V32.67H13.8761ZM13.5761 31.97L14.231 31.2143V31.2143L13.5761 31.97ZM12.0961 31.96L11.4559 31.1918L11.4495 31.1971L11.4432 31.2026L12.0961 31.96ZM11.7361 32.67L10.7475 32.5196L10.5724 33.67H11.7361V32.67ZM14.6261 33.12C14.6261 33.2384 14.6187 33.3667 14.6027 33.5054L16.5895 33.7346C16.6135 33.5266 16.6261 33.3216 16.6261 33.12H14.6261ZM15.5961 32.62H11.7261V34.62H15.5961V32.62ZM10.729 33.6967C10.7688 34.2139 10.9454 34.7377 11.3615 35.1394L12.7507 33.7006C12.7602 33.7098 12.7594 33.7142 12.753 33.6987C12.7453 33.68 12.73 33.6327 12.7231 33.5433L10.729 33.6967ZM11.3871 35.1633C11.7834 35.52 12.27 35.69 12.7861 35.69V33.69C12.7668 33.69 12.7541 33.6885 12.7466 33.6872C12.7394 33.686 12.7361 33.6848 12.7355 33.6846C12.735 33.6844 12.7349 33.6844 12.7344 33.6841C12.7338 33.6837 12.7307 33.6818 12.7251 33.6767L11.3871 35.1633ZM12.7861 35.69C13.1404 35.69 13.5103 35.6144 13.8473 35.4099C14.189 35.2026 14.4291 34.9038 14.5836 34.5701L12.7686 33.7299C12.7612 33.7459 12.7594 33.7449 12.7678 33.7351C12.7719 33.7303 12.7777 33.7243 12.7853 33.7178C12.793 33.7113 12.8013 33.7053 12.8099 33.7001C12.8184 33.6949 12.826 33.6912 12.8318 33.6889C12.8376 33.6865 12.8406 33.6857 12.8402 33.6858C12.8392 33.6861 12.8229 33.69 12.7861 33.69V35.69ZM13.6761 35.15H15.4961V33.15H13.6761V35.15ZM14.527 33.9033C14.4713 34.1221 14.3718 34.3168 14.2207 34.4964L15.7515 35.7836C16.0938 35.3765 16.3342 34.9113 16.4652 34.3967L14.527 33.9033ZM14.2121 34.5068C14.0754 34.6739 13.8982 34.8124 13.6623 34.9196L14.4899 36.7404C14.9873 36.5143 15.4168 36.1928 15.7601 35.7732L14.2121 34.5068ZM13.6623 34.9196C13.441 35.0202 13.1746 35.08 12.8461 35.08V37.08C13.4242 37.08 13.9779 36.9731 14.4899 36.7404L13.6623 34.9196ZM12.8461 35.08C12.446 35.08 12.1279 34.9959 11.8659 34.8526L10.9063 36.6074C11.4976 36.9307 12.1529 37.08 12.8461 37.08V35.08ZM11.8659 34.8526C11.6087 34.712 11.4109 34.5164 11.2609 34.2455L9.5113 35.2145C9.84128 35.8103 10.3102 36.2814 10.9063 36.6074L11.8659 34.8526ZM11.2609 34.2455C11.116 33.984 11.0261 33.6496 11.0261 33.21H9.02609C9.02609 33.9304 9.17614 34.6094 9.5113 35.2145L11.2609 34.2455ZM11.0261 33.21C11.0261 32.7659 11.1146 32.4277 11.2566 32.1641L9.49562 31.2159C9.17092 31.8189 9.02609 32.4941 9.02609 33.21H11.0261ZM11.2509 32.1745C11.4009 31.9036 11.5987 31.708 11.8559 31.5674L10.8963 29.8126C10.3002 30.1386 9.83128 30.6097 9.5013 31.2055L11.2509 32.1745ZM11.8559 31.5674C12.1162 31.425 12.437 31.34 12.8461 31.34V29.34C12.1485 29.34 11.4893 29.4883 10.8963 29.8126L11.8559 31.5674ZM12.8461 31.34C13.2424 31.34 13.5553 31.422 13.8112 31.56L14.761 29.8C14.1768 29.4847 13.5298 29.34 12.8461 29.34V31.34ZM13.8112 31.56C14.062 31.6954 14.2506 31.8813 14.3919 32.1356L16.1403 31.1644C15.8149 30.5787 15.3502 30.1179 14.761 29.8L13.8112 31.56ZM14.3979 32.1461C14.5387 32.3927 14.6261 32.7063 14.6261 33.12H16.6261C16.6261 32.4137 16.4735 31.7473 16.1343 31.1539L14.3979 32.1461ZM14.8761 32.67C14.8761 32.1219 14.6755 31.5995 14.231 31.2143L12.9212 32.7257C12.918 32.723 12.9109 32.7162 12.9026 32.7049C12.8942 32.6935 12.8871 32.681 12.8819 32.6689C12.8709 32.6433 12.8761 32.6379 12.8761 32.67H14.8761ZM14.231 31.2143C13.8249 30.8623 13.3324 30.71 12.8261 30.71V32.71C12.8793 32.71 12.9045 32.7176 12.9111 32.7198C12.9159 32.7215 12.9172 32.7223 12.9212 32.7257L14.231 31.2143ZM12.8261 30.71C12.3308 30.71 11.8541 30.8599 11.4559 31.1918L12.7363 32.7282C12.7438 32.722 12.7477 32.7202 12.7526 32.7186C12.7587 32.7164 12.7805 32.71 12.8261 32.71V30.71ZM11.4432 31.2026C11.0323 31.5568 10.822 32.0299 10.7475 32.5196L12.7247 32.8204C12.7347 32.7549 12.7484 32.7238 12.753 32.7147C12.7564 32.708 12.7551 32.7122 12.749 32.7174L11.4432 31.2026ZM11.7361 33.67H13.8761V31.67H11.7361V33.67ZM21.7582 33.62V34.62H22.6495L22.7516 33.7346L21.7582 33.62ZM17.8882 33.62V32.62H16.8083L16.8911 33.6967L17.8882 33.62ZM18.2182 34.42L17.5236 35.1394L17.5362 35.1516L17.5492 35.1633L18.2182 34.42ZM19.8382 34.15V33.15H19.1992L18.9307 33.7299L19.8382 34.15ZM21.6582 34.15L22.6273 34.3967L22.9446 33.15H21.6582V34.15ZM21.1482 35.14L20.3828 34.4963L20.3742 34.5068L21.1482 35.14ZM20.2382 35.83L20.652 36.7404L20.2382 35.83ZM17.5482 35.73L17.0684 36.6074H17.0684L17.5482 35.73ZM16.5482 34.73L17.423 34.2455L16.5482 34.73ZM16.5382 31.69L15.6634 31.2055L15.6577 31.2159L16.5382 31.69ZM17.5382 30.69L18.018 31.5674L17.5382 30.69ZM20.4482 30.68L19.9733 31.56V31.56L20.4482 30.68ZM21.4282 31.65L20.554 32.1357L20.56 32.1461L21.4282 31.65ZM20.0382 32.67V33.67H21.0382V32.67H20.0382ZM19.7382 31.97L20.3931 31.2143L20.3931 31.2143L19.7382 31.97ZM18.2582 31.96L17.618 31.1918L17.6116 31.1971L17.6053 31.2026L18.2582 31.96ZM17.8982 32.67L16.9096 32.5196L16.7345 33.67H17.8982V32.67ZM20.7882 33.12C20.7882 33.2384 20.7808 33.3667 20.7648 33.5054L22.7516 33.7346C22.7756 33.5266 22.7882 33.3216 22.7882 33.12H20.7882ZM21.7582 32.62H17.8882V34.62H21.7582V32.62ZM16.8911 33.6967C16.9309 34.2139 17.1075 34.7377 17.5236 35.1394L18.9128 33.7006C18.9223 33.7098 18.9215 33.7142 18.9151 33.6987C18.9074 33.68 18.8921 33.6327 18.8853 33.5433L16.8911 33.6967ZM17.5492 35.1633C17.9456 35.52 18.4321 35.69 18.9482 35.69V33.69C18.929 33.69 18.9162 33.6885 18.9087 33.6872C18.9015 33.686 18.8982 33.6848 18.8976 33.6846C18.8971 33.6844 18.897 33.6844 18.8965 33.6841C18.8959 33.6837 18.8928 33.6818 18.8872 33.6767L17.5492 35.1633ZM18.9482 35.69C19.3026 35.69 19.6724 35.6144 20.0094 35.4099C20.3511 35.2026 20.5912 34.9038 20.7457 34.5701L18.9307 33.7299C18.9233 33.7459 18.9215 33.7449 18.9299 33.7351C18.934 33.7303 18.9398 33.7243 18.9474 33.7178C18.9551 33.7113 18.9634 33.7053 18.972 33.7001C18.9805 33.6949 18.9881 33.6912 18.9939 33.6889C18.9997 33.6865 19.0027 33.6857 19.0023 33.6858C19.0013 33.6861 18.985 33.69 18.9482 33.69V35.69ZM19.8382 35.15H21.6582V33.15H19.8382V35.15ZM20.6891 33.9033C20.6334 34.1221 20.5339 34.3168 20.3828 34.4964L21.9136 35.7836C22.2559 35.3765 22.4963 34.9113 22.6273 34.3967L20.6891 33.9033ZM20.3742 34.5068C20.2375 34.6739 20.0603 34.8124 19.8244 34.9196L20.652 36.7404C21.1494 36.5143 21.5789 36.1928 21.9222 35.7732L20.3742 34.5068ZM19.8244 34.9196C19.6031 35.0202 19.3368 35.08 19.0082 35.08V37.08C19.5863 37.08 20.14 36.9731 20.652 36.7404L19.8244 34.9196ZM19.0082 35.08C18.6081 35.08 18.2901 34.9959 18.028 34.8526L17.0684 36.6074C17.6597 36.9307 18.315 37.08 19.0082 37.08V35.08ZM18.028 34.8526C17.7708 34.712 17.573 34.5164 17.423 34.2455L15.6734 35.2145C16.0034 35.8103 16.4723 36.2814 17.0684 36.6074L18.028 34.8526ZM17.423 34.2455C17.2782 33.984 17.1882 33.6496 17.1882 33.21H15.1882C15.1882 33.9304 15.3383 34.6094 15.6734 35.2145L17.423 34.2455ZM17.1882 33.21C17.1882 32.7659 17.2767 32.4277 17.4187 32.1641L15.6577 31.2159C15.333 31.8189 15.1882 32.4941 15.1882 33.21H17.1882ZM17.413 32.1745C17.563 31.9036 17.7608 31.708 18.018 31.5674L17.0584 29.8126C16.4623 30.1386 15.9934 30.6097 15.6634 31.2055L17.413 32.1745ZM18.018 31.5674C18.2783 31.425 18.5992 31.34 19.0082 31.34V29.34C18.3106 29.34 17.6514 29.4883 17.0584 29.8126L18.018 31.5674ZM19.0082 31.34C19.4045 31.34 19.7175 31.422 19.9733 31.56L20.9231 29.8C20.3389 29.4847 19.6919 29.34 19.0082 29.34V31.34ZM19.9733 31.56C20.2241 31.6954 20.4128 31.8813 20.554 32.1356L22.3024 31.1644C21.977 30.5787 21.5123 30.1179 20.9231 29.8L19.9733 31.56ZM20.56 32.1461C20.7008 32.3927 20.7882 32.7063 20.7882 33.12H22.7882C22.7882 32.4137 22.6356 31.7473 22.2964 31.1539L20.56 32.1461ZM21.0382 32.67C21.0382 32.1219 20.8376 31.5995 20.3931 31.2143L19.0833 32.7257C19.0802 32.723 19.0731 32.7162 19.0647 32.7049C19.0563 32.6935 19.0492 32.681 19.0441 32.6689C19.0331 32.6433 19.0382 32.6379 19.0382 32.67H21.0382ZM20.3931 31.2143C19.987 30.8623 19.4945 30.71 18.9882 30.71V32.71C19.0414 32.71 19.0666 32.7176 19.0732 32.7198C19.078 32.7215 19.0794 32.7223 19.0833 32.7257L20.3931 31.2143ZM18.9882 30.71C18.4929 30.71 18.0163 30.8599 17.618 31.1918L18.8984 32.7282C18.9059 32.722 18.9098 32.7202 18.9147 32.7186C18.9209 32.7164 18.9426 32.71 18.9882 32.71V30.71ZM17.6053 31.2026C17.1944 31.5568 16.9841 32.0299 16.9096 32.5196L18.8868 32.8204C18.8968 32.7549 18.9105 32.7238 18.9151 32.7147C18.9185 32.708 18.9172 32.7122 18.9111 32.7174L17.6053 31.2026ZM17.8982 33.67H20.0382V31.67H17.8982V33.67ZM24.9295 29.58L24.2353 30.2998L24.2484 30.3124L24.2619 30.3246L24.9295 29.58ZM24.9295 28.26L25.6099 28.9928L25.6109 28.9919L24.9295 28.26ZM26.3895 28.26L25.6953 28.9798L25.7084 28.9924L25.7219 29.0046L26.3895 28.26ZM26.3895 29.58L27.0699 30.3128L27.0709 30.3119L26.3895 29.58ZM26.5195 30.42H27.5195V29.42H26.5195V30.42ZM26.5195 36V37H27.5195V36H26.5195ZM24.8095 36H23.8095V37H24.8095V36ZM24.8095 30.42V29.42H23.8095V30.42H24.8095ZM25.6695 28.84C25.616 28.84 25.5933 28.8324 25.5909 28.8315C25.5895 28.831 25.5907 28.8313 25.5932 28.8328C25.5957 28.8343 25.5971 28.8356 25.597 28.8354L24.2619 30.3246C24.6669 30.6877 25.1638 30.84 25.6695 30.84V28.84ZM25.6236 28.8602C25.6204 28.8571 25.6221 28.8582 25.6262 28.864C25.6304 28.8701 25.6355 28.8787 25.64 28.8894C25.6446 28.9002 25.6472 28.9097 25.6486 28.9166C25.6499 28.9234 25.6495 28.925 25.6495 28.92H23.6495C23.6495 29.4507 23.8526 29.9308 24.2353 30.2998L25.6236 28.8602ZM25.6495 28.92C25.6495 28.9053 25.6515 28.9184 25.64 28.9455C25.6347 28.958 25.6283 28.9694 25.6216 28.9787C25.6151 28.9879 25.6103 28.9924 25.6099 28.9928L24.249 27.5272C23.8481 27.8995 23.6495 28.3899 23.6495 28.92H25.6495ZM25.6109 28.9919C25.6117 28.9911 25.6105 28.9924 25.6075 28.9942C25.6061 28.995 25.6048 28.9957 25.6038 28.9962C25.6027 28.9968 25.6021 28.997 25.6022 28.9969C25.6023 28.9969 25.6067 28.9953 25.6169 28.9936C25.6273 28.9919 25.6444 28.99 25.6695 28.99V26.99C25.1535 26.99 24.6518 27.1522 24.248 27.5281L25.6109 28.9919ZM25.6695 28.99C25.6917 28.99 25.7058 28.9917 25.7131 28.9929C25.7201 28.9941 25.7214 28.995 25.7183 28.9938C25.7151 28.9926 25.7102 28.9903 25.7047 28.9869C25.6993 28.9835 25.6961 28.9806 25.6953 28.9798L27.0836 27.5402C26.6856 27.1564 26.1849 26.99 25.6695 26.99V28.99ZM25.7219 29.0046C25.7226 29.0052 25.7181 29.0013 25.7114 28.9922C25.7046 28.9829 25.6975 28.971 25.6914 28.9573C25.6782 28.9272 25.6795 28.9099 25.6795 28.92H27.6795C27.6795 28.3779 27.4683 27.8842 27.057 27.5154L25.7219 29.0046ZM25.6795 28.92C25.6795 28.9228 25.6792 28.9189 25.681 28.9101C25.6828 28.901 25.6862 28.8897 25.6914 28.8777C25.6967 28.8658 25.7024 28.8565 25.7067 28.8505C25.7109 28.8447 25.7123 28.8441 25.708 28.8481L27.0709 30.3119C27.4637 29.9462 27.6795 29.4626 27.6795 28.92H25.6795ZM25.709 28.8472C25.7105 28.8458 25.714 28.8429 25.7191 28.8398C25.7242 28.8367 25.7282 28.835 25.7298 28.8344C25.7337 28.833 25.7174 28.84 25.6695 28.84V30.84C26.1742 30.84 26.6703 30.6839 27.0699 30.3128L25.709 28.8472ZM25.5195 30.42V36H27.5195V30.42H25.5195ZM26.5195 35H24.8095V37H26.5195V35ZM25.8095 36V30.42H23.8095V36H25.8095ZM24.8095 31.42H26.5195V29.42H24.8095V31.42ZM30.8687 34.55H31.8687V33.55H30.8687V34.55ZM30.8687 36V37H31.8687V36H30.8687ZM28.5487 35.55L27.8861 36.299L27.8943 36.3062L28.5487 35.55ZM28.0287 31.84H29.0287V30.84H28.0287V31.84ZM27.3487 31.84H26.3487V32.84H27.3487V31.84ZM27.3487 30.42V29.42H26.3487V30.42H27.3487ZM28.0287 30.42V31.42H29.0287V30.42H28.0287ZM28.0287 29.06V28.06H27.0287V29.06H28.0287ZM29.7387 29.06H30.7387V28.06H29.7387V29.06ZM29.7387 30.42H28.7387V31.42H29.7387V30.42ZM30.8587 30.42H31.8587V29.42H30.8587V30.42ZM30.8587 31.84V32.84H31.8587V31.84H30.8587ZM29.7387 31.84V30.84H28.7387V31.84H29.7387ZM29.8587 34.44L29.1829 35.1772V35.1772L29.8587 34.44ZM29.8687 34.55V36H31.8687V34.55H29.8687ZM30.8687 35H29.9987V37H30.8687V35ZM29.9987 35C29.5338 35 29.3125 34.8886 29.203 34.7938L27.8943 36.3062C28.4782 36.8114 29.2236 37 29.9987 37V35ZM29.2112 34.801C29.1656 34.7606 29.0287 34.6004 29.0287 34.06H27.0287C27.0287 34.8929 27.2385 35.7261 27.8861 36.299L29.2112 34.801ZM29.0287 34.06V31.84H27.0287V34.06H29.0287ZM28.0287 30.84H27.3487V32.84H28.0287V30.84ZM28.3487 31.84V30.42H26.3487V31.84H28.3487ZM27.3487 31.42H28.0287V29.42H27.3487V31.42ZM29.0287 30.42V29.06H27.0287V30.42H29.0287ZM28.0287 30.06H29.7387V28.06H28.0287V30.06ZM28.7387 29.06V30.42H30.7387V29.06H28.7387ZM29.7387 31.42H30.8587V29.42H29.7387V31.42ZM29.8587 30.42V31.84H31.8587V30.42H29.8587ZM30.8587 30.84H29.7387V32.84H30.8587V30.84ZM28.7387 31.84V34.08H30.7387V31.84H28.7387ZM28.7387 34.08C28.7387 34.378 28.8074 34.8329 29.1829 35.1772L30.5344 33.7028C30.7499 33.9004 30.7387 34.1154 30.7387 34.08H28.7387ZM29.1829 35.1772C29.5411 35.5055 29.9877 35.55 30.2587 35.55V33.55C30.2259 33.55 30.24 33.5462 30.2838 33.5583C30.3293 33.5708 30.4298 33.607 30.5344 33.7028L29.1829 35.1772ZM30.2587 35.55H30.8687V33.55H30.2587V35.55ZM37.0512 33.62V34.62H37.9424L38.0446 33.7346L37.0512 33.62ZM33.1812 33.62V32.62H32.1013L32.1841 33.6967L33.1812 33.62ZM33.5112 34.42L32.8166 35.1394L32.8292 35.1516L32.8422 35.1633L33.5112 34.42ZM35.1312 34.15V33.15H34.4922L34.2237 33.7299L35.1312 34.15ZM36.9512 34.15L37.9203 34.3967L38.2376 33.15H36.9512V34.15ZM36.4412 35.14L35.6757 34.4963L35.6672 34.5068L36.4412 35.14ZM35.5312 35.83L35.945 36.7404L35.5312 35.83ZM32.8412 35.73L32.3614 36.6074L32.8412 35.73ZM31.8412 34.73L32.716 34.2455L31.8412 34.73ZM31.8312 31.69L30.9563 31.2055L30.9507 31.2159L31.8312 31.69ZM32.8312 30.69L33.311 31.5674L32.8312 30.69ZM35.7412 30.68L35.2662 31.56V31.56L35.7412 30.68ZM36.7212 31.65L35.847 32.1357L35.8529 32.1461L36.7212 31.65ZM35.3312 32.67V33.67H36.3312V32.67H35.3312ZM35.0312 31.97L35.6861 31.2143V31.2143L35.0312 31.97ZM33.5512 31.96L32.911 31.1918L32.9046 31.1971L32.8982 31.2026L33.5512 31.96ZM33.1912 32.67L32.2026 32.5196L32.0275 33.67H33.1912V32.67ZM36.0812 33.12C36.0812 33.2384 36.0738 33.3667 36.0578 33.5054L38.0446 33.7346C38.0686 33.5266 38.0812 33.3216 38.0812 33.12H36.0812ZM37.0512 32.62H33.1812V34.62H37.0512V32.62ZM32.1841 33.6967C32.2239 34.2139 32.4005 34.7377 32.8166 35.1394L34.2058 33.7006C34.2153 33.7098 34.2145 33.7142 34.2081 33.6987C34.2004 33.68 34.1851 33.6327 34.1782 33.5433L32.1841 33.6967ZM32.8422 35.1633C33.2385 35.52 33.7251 35.69 34.2412 35.69V33.69C34.2219 33.69 34.2091 33.6885 34.2017 33.6872C34.1945 33.686 34.1911 33.6848 34.1906 33.6846C34.1901 33.6844 34.19 33.6844 34.1894 33.6841C34.1889 33.6837 34.1858 33.6818 34.1801 33.6767L32.8422 35.1633ZM34.2412 35.69C34.5955 35.69 34.9654 35.6144 35.3024 35.4099C35.6441 35.2026 35.8841 34.9038 36.0386 34.5701L34.2237 33.7299C34.2163 33.7459 34.2144 33.7449 34.2229 33.7351C34.227 33.7303 34.2328 33.7243 34.2404 33.7178C34.2481 33.7113 34.2564 33.7053 34.2649 33.7001C34.2735 33.6949 34.2811 33.6912 34.2869 33.6889C34.2926 33.6865 34.2957 33.6857 34.2953 33.6858C34.2943 33.6861 34.2779 33.69 34.2412 33.69V35.69ZM35.1312 35.15H36.9512V33.15H35.1312V35.15ZM35.9821 33.9033C35.9264 34.1221 35.8268 34.3168 35.6758 34.4964L37.2065 35.7836C37.5488 35.3765 37.7893 34.9113 37.9203 34.3967L35.9821 33.9033ZM35.6672 34.5068C35.5305 34.6739 35.3533 34.8124 35.1174 34.9196L35.945 36.7404C36.4424 36.5143 36.8719 36.1928 37.2151 35.7732L35.6672 34.5068ZM35.1174 34.9196C34.8961 35.0202 34.6297 35.08 34.3012 35.08V37.08C34.8793 37.08 35.4329 36.9731 35.945 36.7404L35.1174 34.9196ZM34.3012 35.08C33.901 35.08 33.583 34.9959 33.321 34.8526L32.3614 36.6074C32.9527 36.9307 33.608 37.08 34.3012 37.08V35.08ZM33.321 34.8526C33.0638 34.712 32.866 34.5164 32.716 34.2455L30.9664 35.2145C31.2964 35.8103 31.7652 36.2814 32.3614 36.6074L33.321 34.8526ZM32.716 34.2455C32.5711 33.984 32.4812 33.6496 32.4812 33.21H30.4812C30.4812 33.9304 30.6312 34.6094 30.9664 35.2145L32.716 34.2455ZM32.4812 33.21C32.4812 32.7659 32.5697 32.4277 32.7116 32.1641L30.9507 31.2159C30.626 31.8189 30.4812 32.4941 30.4812 33.21H32.4812ZM32.706 32.1745C32.856 31.9036 33.0538 31.708 33.311 31.5674L32.3514 29.8126C31.7552 30.1386 31.2864 30.6097 30.9564 31.2055L32.706 32.1745ZM33.311 31.5674C33.5713 31.425 33.8921 31.34 34.3012 31.34V29.34C33.6036 29.34 32.9444 29.4883 32.3514 29.8126L33.311 31.5674ZM34.3012 31.34C34.6974 31.34 35.0104 31.422 35.2662 31.56L36.2161 29.8C35.6319 29.4847 34.9849 29.34 34.3012 29.34V31.34ZM35.2662 31.56C35.5171 31.6954 35.7057 31.8813 35.847 32.1356L37.5953 31.1644C37.27 30.5787 36.8053 30.1179 36.2161 29.8L35.2662 31.56ZM35.8529 32.1461C35.9938 32.3927 36.0812 32.7063 36.0812 33.12H38.0812C38.0812 32.4137 37.9286 31.7473 37.5894 31.1539L35.8529 32.1461ZM36.3312 32.67C36.3312 32.1219 36.1306 31.5995 35.6861 31.2143L34.3762 32.7257C34.3731 32.723 34.366 32.7162 34.3577 32.7049C34.3493 32.6935 34.3422 32.681 34.337 32.6689C34.326 32.6433 34.3312 32.6379 34.3312 32.67H36.3312ZM35.6861 31.2143C35.28 30.8623 34.7875 30.71 34.2812 30.71V32.71C34.3344 32.71 34.3595 32.7176 34.3661 32.7198C34.3709 32.7215 34.3723 32.7223 34.3762 32.7257L35.6861 31.2143ZM34.2812 30.71C33.7859 30.71 33.3092 30.8599 32.911 31.1918L34.1914 32.7282C34.1988 32.722 34.2028 32.7202 34.2077 32.7186C34.2138 32.7164 34.2356 32.71 34.2812 32.71V30.71ZM32.8982 31.2026C32.4874 31.5568 32.2771 32.0299 32.2026 32.5196L34.1798 32.8204C34.1898 32.7549 34.2035 32.7238 34.2081 32.7147C34.2115 32.708 34.2101 32.7122 34.2041 32.7174L32.8982 31.2026ZM33.1912 33.67H35.3312V31.67H33.1912V33.67ZM46.7533 30.99L46.0348 31.6856L46.0405 31.6914L46.7533 30.99ZM47.3733 36V37H48.3733V36H47.3733ZM45.6733 36H44.6733V37H45.6733V36ZM45.3833 32.14L44.6522 32.8223L44.664 32.8349L44.6762 32.8471L45.3833 32.14ZM43.8133 32.14L43.0943 31.445L43.0939 31.4454L43.8133 32.14ZM43.5333 36V37H44.5333V36H43.5333ZM41.8333 36H40.8333V37H41.8333V36ZM41.5433 32.14L40.8122 32.8223L40.824 32.8349L40.8362 32.8471L41.5433 32.14ZM39.9733 32.14L39.2543 31.445L39.2539 31.4454L39.9733 32.14ZM39.6933 36V37H40.6933V36H39.6933ZM37.9833 36H36.9833V37H37.9833V36ZM37.9833 30.42V29.42H36.9833V30.42H37.9833ZM39.6933 30.42H40.6933V29.42H39.6933V30.42ZM39.6933 31.12H38.6933V34.1431L40.496 31.7163L39.6933 31.12ZM40.3733 30.57L40.8032 31.4729L40.8119 31.4687L40.8205 31.4644L40.3733 30.57ZM42.4433 30.63L41.9607 31.5059L41.9681 31.5099L42.4433 30.63ZM43.2233 31.4L42.3508 31.8886L43.1724 33.3558L44.0692 31.9333L43.2233 31.4ZM45.1033 31.36C45.5802 31.36 45.8513 31.496 46.0349 31.6856L47.4717 30.2944C46.8419 29.644 46.013 29.36 45.1033 29.36V31.36ZM46.0405 31.6914C46.2239 31.8778 46.3733 32.1823 46.3733 32.74H48.3733C48.3733 31.8044 48.1093 30.9422 47.466 30.2886L46.0405 31.6914ZM46.3733 32.74V36H48.3733V32.74H46.3733ZM47.3733 35H45.6733V37H47.3733V35ZM46.6733 36V32.97H44.6733V36H46.6733ZM46.6733 32.97C46.6733 32.4319 46.525 31.8675 46.0904 31.4329L44.6762 32.8471C44.6691 32.84 44.6632 32.8324 44.6591 32.8257C44.6552 32.8193 44.655 32.8173 44.6567 32.8223C44.6607 32.8336 44.6733 32.8776 44.6733 32.97H46.6733ZM46.1143 31.4577C45.6982 31.0119 45.1486 30.84 44.6033 30.84V32.84C44.6708 32.84 44.6939 32.8501 44.6893 32.8483C44.6869 32.8474 44.6804 32.8446 44.672 32.8389C44.6635 32.8332 44.6567 32.8271 44.6522 32.8223L46.1143 31.4577ZM44.6033 30.84C44.0567 30.84 43.5128 31.012 43.0943 31.445L44.5323 32.835C44.5303 32.8371 44.5262 32.8408 44.5205 32.8445C44.5178 32.8463 44.5155 32.8476 44.5136 32.8486C44.5117 32.8495 44.5107 32.8499 44.5108 32.8499C44.5109 32.8498 44.5172 32.8474 44.5317 32.845C44.5465 32.8425 44.5698 32.84 44.6033 32.84V30.84ZM43.0939 31.4454C42.673 31.8813 42.5333 32.4411 42.5333 32.97H44.5333C44.5333 32.8744 44.5459 32.8267 44.5508 32.8122C44.5543 32.8018 44.5509 32.8157 44.5327 32.8346L43.0939 31.4454ZM42.5333 32.97V36H44.5333V32.97H42.5333ZM43.5333 35H41.8333V37H43.5333V35ZM42.8333 36V32.97H40.8333V36H42.8333ZM42.8333 32.97C42.8333 32.4319 42.685 31.8675 42.2504 31.4329L40.8362 32.8471C40.8291 32.84 40.8232 32.8324 40.8191 32.8257C40.8152 32.8193 40.815 32.8173 40.8167 32.8223C40.8207 32.8336 40.8333 32.8776 40.8333 32.97H42.8333ZM42.2743 31.4577C41.8582 31.0119 41.3086 30.84 40.7633 30.84V32.84C40.8308 32.84 40.8539 32.8501 40.8493 32.8483C40.8469 32.8474 40.8404 32.8446 40.832 32.8389C40.8235 32.8332 40.8167 32.8271 40.8122 32.8223L42.2743 31.4577ZM40.7633 30.84C40.2167 30.84 39.6728 31.012 39.2543 31.445L40.6923 32.835C40.6903 32.8371 40.6862 32.8408 40.6805 32.8445C40.6778 32.8463 40.6755 32.8476 40.6736 32.8486C40.6717 32.8495 40.6707 32.8499 40.6708 32.8499C40.6709 32.8498 40.6772 32.8474 40.6917 32.845C40.7065 32.8425 40.7298 32.84 40.7633 32.84V30.84ZM39.2539 31.4454C38.833 31.8813 38.6933 32.4411 38.6933 32.97H40.6933C40.6933 32.8744 40.7059 32.8267 40.7108 32.8122C40.7143 32.8018 40.7109 32.8157 40.6927 32.8346L39.2539 31.4454ZM38.6933 32.97V36H40.6933V32.97H38.6933ZM39.6933 35H37.9833V37H39.6933V35ZM38.9833 36V30.42H36.9833V36H38.9833ZM37.9833 31.42H39.6933V29.42H37.9833V31.42ZM38.6933 30.42V31.12H40.6933V30.42H38.6933ZM40.496 31.7163C40.5655 31.6228 40.6605 31.5408 40.8032 31.4729L39.9433 29.6671C39.5261 29.8658 39.1677 30.1505 38.8905 30.5237L40.496 31.7163ZM40.8205 31.4644C40.9447 31.4023 41.1051 31.36 41.3233 31.36V29.36C40.8348 29.36 40.3619 29.4577 39.9261 29.6756L40.8205 31.4644ZM41.3233 31.36C41.5961 31.36 41.7997 31.4171 41.9607 31.5058L42.9259 29.7542C42.4336 29.4829 41.8904 29.36 41.3233 29.36V31.36ZM41.9681 31.5099C42.1331 31.599 42.2559 31.7193 42.3508 31.8886L44.0958 30.9114C43.8173 30.4141 43.4201 30.021 42.9184 29.7501L41.9681 31.5099ZM44.0692 31.9333C44.1709 31.772 44.3125 31.6325 44.515 31.515L43.5116 29.785C43.0474 30.0542 42.6623 30.4147 42.3774 30.8667L44.0692 31.9333ZM44.515 31.515C44.6926 31.412 44.8823 31.36 45.1033 31.36V29.36C44.5376 29.36 44.0006 29.5013 43.5116 29.785L44.515 31.515ZM49.5392 35.83L49.9409 34.9142L49.5392 35.83ZM48.6392 35.15L47.8392 35.75L47.8459 35.7588L48.6392 35.15ZM48.2692 34.17V33.17H47.1924L47.2719 34.2439L48.2692 34.17ZM49.9592 34.17L50.9539 34.0671L50.8611 33.17H49.9592V34.17ZM50.2292 34.64L50.8292 33.84L50.2292 34.64ZM51.3092 34.7L51.8859 35.517L51.8947 35.5107L51.3092 34.7ZM51.2392 34.02L50.8065 34.9215L50.8214 34.9287L50.8365 34.9353L51.2392 34.02ZM50.4292 33.76L50.6718 32.7899L50.6641 32.7879L50.6564 32.7862L50.4292 33.76ZM49.4292 33.47L49.0578 34.3985L49.0679 34.4025L49.0781 34.4063L49.4292 33.47ZM48.7392 32.98L47.9784 33.6289L47.9832 33.6346L47.9881 33.6401L48.7392 32.98ZM48.7092 31.2L47.8804 30.6405L47.8772 30.6453L48.7092 31.2ZM49.4892 30.57L49.0847 29.6554L49.0781 29.6584L49.4892 30.57ZM52.3692 30.86L51.7143 31.6157L51.7205 31.621L52.3692 30.86ZM53.0692 32.24V33.24H54.1793L54.0638 32.1359L53.0692 32.24ZM51.4892 32.24L50.4986 32.3766L50.6177 33.24H51.4892V32.24ZM51.2292 31.78L50.6 32.5572L50.6088 32.5644L50.6178 32.5713L51.2292 31.78ZM50.2092 31.73L50.7757 32.554L50.7927 32.5424L50.8092 32.53L50.2092 31.73ZM50.2992 32.4L49.8665 33.3015L49.8733 33.3048L49.8802 33.308L50.2992 32.4ZM51.0992 32.64L51.3491 31.6717L51.3327 31.6675L51.3162 31.6638L51.0992 32.64ZM52.1092 32.96L51.7297 33.8852L51.7399 33.8894L51.7502 33.8933L52.1092 32.96ZM52.7892 33.46L52.0192 34.098L52.0291 34.11L52.0394 34.1216L52.7892 33.46ZM53.0992 34.38H54.0992V34.3714L54.0991 34.3628L53.0992 34.38ZM52.8192 35.26L52.0069 34.6768L52.004 34.6808L52.8192 35.26ZM52.0292 35.86L51.6396 34.939L51.6331 34.9418L52.0292 35.86ZM50.8392 35.08C50.4672 35.08 50.1743 35.0166 49.9409 34.9142L49.1376 36.7458C49.6642 36.9768 50.2379 37.08 50.8392 37.08V35.08ZM49.9409 34.9142C49.6921 34.8051 49.5356 34.6755 49.4325 34.5412L47.8459 35.7588C48.1829 36.1979 48.6264 36.5216 49.1376 36.7458L49.9409 34.9142ZM49.4392 34.55C49.332 34.407 49.2788 34.2623 49.2665 34.0961L47.2719 34.2439C47.313 34.7977 47.5064 35.3063 47.8392 35.75L49.4392 34.55ZM48.2692 35.17H49.9592V33.17H48.2692V35.17ZM48.9645 34.2729C49.0141 34.7524 49.2536 35.1583 49.6292 35.44L50.8292 33.84C50.8462 33.8527 50.8793 33.883 50.9088 33.9344C50.9387 33.9864 50.9506 34.0352 50.9539 34.0671L48.9645 34.2729ZM49.6292 35.44C49.99 35.7106 50.4069 35.82 50.8192 35.82V33.82C50.7883 33.82 50.7805 33.8161 50.7885 33.8185C50.7924 33.8197 50.7988 33.822 50.8066 33.826C50.8146 33.83 50.8223 33.8348 50.8292 33.84L49.6292 35.44ZM50.8192 35.82C51.1353 35.82 51.5353 35.7645 51.8859 35.517L50.7325 33.883C50.7973 33.8373 50.849 33.8223 50.8638 33.8187C50.8776 33.8153 50.8661 33.82 50.8192 33.82V35.82ZM51.8947 35.5107C52.2418 35.26 52.4892 34.8634 52.4892 34.37H50.4892C50.4892 34.2804 50.5111 34.175 50.5663 34.0736C50.6196 33.9759 50.6845 33.9177 50.7237 33.8893L51.8947 35.5107ZM52.4892 34.37C52.4892 34.1068 52.4172 33.8287 52.2405 33.5813C52.0696 33.3421 51.846 33.1945 51.642 33.1047L50.8365 34.9353C50.7991 34.9188 50.7005 34.8662 50.613 34.7437C50.5196 34.613 50.4892 34.4732 50.4892 34.37H52.4892ZM51.672 33.1185C51.4089 32.9922 51.0562 32.886 50.6718 32.7899L50.1867 34.7301C50.5489 34.8207 50.7362 34.8878 50.8065 34.9215L51.672 33.1185ZM50.6564 32.7862C50.2818 32.6988 49.9932 32.6135 49.7803 32.5337L49.0781 34.4063C49.3986 34.5265 49.7766 34.6346 50.202 34.7338L50.6564 32.7862ZM49.8006 32.5415C49.6828 32.4944 49.5821 32.4242 49.4904 32.3199L47.9881 33.6401C48.283 33.9758 48.6423 34.2323 49.0578 34.3985L49.8006 32.5415ZM49.5001 32.3311C49.4997 32.3307 49.4492 32.2793 49.4492 32.07H47.4492C47.4492 32.6207 47.5921 33.176 47.9784 33.6289L49.5001 32.3311ZM49.4492 32.07C49.4492 31.9424 49.4802 31.8463 49.5413 31.7547L47.8772 30.6453C47.5916 31.0737 47.4492 31.5576 47.4492 32.07H49.4492ZM49.5381 31.7595C49.5986 31.6698 49.7021 31.571 49.9003 31.4816L49.0781 29.6584C48.5963 29.8757 48.1799 30.1968 47.8804 30.6405L49.5381 31.7595ZM49.8937 31.4845C50.0855 31.3997 50.3516 31.34 50.7192 31.34V29.34C50.1402 29.34 49.5863 29.4336 49.0847 29.6555L49.8937 31.4845ZM50.7192 31.34C51.2573 31.34 51.5479 31.4715 51.7143 31.6157L53.0242 30.1043C52.3906 29.5552 51.5811 29.34 50.7192 29.34V31.34ZM51.7205 31.621C51.9156 31.7874 52.0391 32.004 52.0746 32.3441L54.0638 32.1359C53.9794 31.3294 53.6362 30.626 53.018 30.099L51.7205 31.621ZM53.0692 31.24H51.4892V33.24H53.0692V31.24ZM52.4798 32.1034C52.4195 31.6658 52.2064 31.2713 51.8407 30.9887L50.6178 32.5713C50.5913 32.5508 50.5593 32.5174 50.5337 32.4721C50.5085 32.4276 50.5006 32.3915 50.4986 32.3766L52.4798 32.1034ZM51.8584 31.0028C51.4936 30.7074 51.0631 30.61 50.6692 30.61V32.61C50.7061 32.61 50.7109 32.6146 50.6937 32.6094C50.674 32.6034 50.6383 32.5883 50.6 32.5572L51.8584 31.0028ZM50.6692 30.61C50.3557 30.61 49.9563 30.6697 49.6092 30.93L50.8092 32.53C50.7411 32.5811 50.6824 32.6009 50.6566 32.6076C50.6327 32.6139 50.6333 32.61 50.6692 32.61V30.61ZM49.6427 30.906C49.2551 31.1724 49.0492 31.5892 49.0492 32.04H51.0492C51.0492 32.1094 51.0344 32.2115 50.9778 32.3211C50.9207 32.4319 50.8426 32.5081 50.7757 32.554L49.6427 30.906ZM49.0492 32.04C49.0492 32.3036 49.1213 32.577 49.2903 32.8204C49.4536 33.0555 49.6678 33.2062 49.8665 33.3015L50.7319 31.4985C50.7639 31.5138 50.8531 31.5645 50.9331 31.6796C51.0188 31.803 51.0492 31.9364 51.0492 32.04H49.0492ZM49.8802 33.308C50.1531 33.434 50.5044 33.5322 50.8823 33.6162L51.3162 31.6638C50.9741 31.5878 50.792 31.526 50.7183 31.492L49.8802 33.308ZM50.8493 33.6083C51.2387 33.7087 51.5275 33.8022 51.7297 33.8852L52.4888 32.0348C52.1709 31.9044 51.7864 31.7846 51.3491 31.6717L50.8493 33.6083ZM51.7502 33.8933C51.8363 33.9265 51.9254 33.9848 52.0192 34.098L53.5592 32.822C53.2664 32.4685 52.9021 32.1935 52.4682 32.0267L51.7502 33.8933ZM52.0394 34.1216C52.0423 34.1249 52.0956 34.1803 52.0994 34.3972L54.0991 34.3628C54.0895 33.8064 53.9361 33.2484 53.5391 32.7984L52.0394 34.1216ZM52.0992 34.38C52.0992 34.502 52.0689 34.5905 52.0069 34.6768L53.6315 35.8432C53.9429 35.4095 54.0992 34.9113 54.0992 34.38H52.0992ZM52.004 34.6808C51.9522 34.7538 51.8517 34.8493 51.6396 34.939L52.4189 36.781C52.9001 36.5774 53.3263 36.2729 53.6344 35.8392L52.004 34.6808ZM51.6331 34.9418C51.4429 35.0238 51.1861 35.08 50.8392 35.08V37.08C51.399 37.08 51.9355 36.9895 52.4253 36.7782L51.6331 34.9418Z" fill="#13D4A3" mask="url(#path-18-outside-1_758_27)"/>
<circle cx="51" cy="24" r="4" fill="#FF6C6C"/>
</svg>
