<svg width="10" height="13" viewBox="0 0 10 13" fill="none" xmlns="http://www.w3.org/2000/svg">
<path d="M3.0373 8.25162C3.25462 8.25162 3.44705 8.39199 3.51342 8.59893L3.51381 8.60015C3.52964 8.6495 3.53769 8.70101 3.53769 8.75284V8.75329V8.75373V8.75417V8.75461V8.75505V8.7555V8.75594V8.75638V8.75682V8.75726V8.7577V8.75813V8.75857V8.75901V8.75945V8.75988V8.76032V8.76075V8.76119V8.76162V8.76206V8.76249V8.76293V8.76336V8.76379V8.76422V8.76465V8.76509V8.76552V8.76595V8.76638V8.7668V8.76723V8.76766V8.76809V8.76852V8.76894V8.76937V8.7698V8.77022V8.77065V8.77107V8.7715V8.77192V8.77234V8.77277V8.77319V8.77361V8.77403V8.77446V8.77488V8.7753V8.77572V8.77614V8.77656V8.77698V8.77739V8.77781V8.77823V8.77865V8.77906V8.77948V8.7799V8.78031V8.78073V8.78114V8.78155V8.78197V8.78238V8.78279V8.78321V8.78362V8.78403V8.78444V8.78485V8.78526V8.78567V8.78608V8.78649V8.7869V8.78731V8.78772V8.78813V8.78853V8.78894V8.78935V8.78975V8.79016V8.79056V8.79097V8.79137V8.79178V8.79218V8.79259V8.79299V8.79339V8.79379V8.7942V8.7946V8.795V8.7954V8.7958V8.7962V8.7966V8.797V8.7974V8.79779V8.79819V8.79859V8.79899V8.79938V8.79978V8.80018V8.80057V8.80097V8.80136V8.80176V8.80215V8.80255V8.80294V8.80333V8.80373V8.80412V8.80451V8.8049V8.80529V8.80569V8.80608V8.80647V8.80686V8.80725V8.80764V8.80802V8.80841V8.8088V8.80919V8.80958V8.80996V8.81035V8.81074V8.81112V8.81151V8.81189V8.81228V8.81266V8.81305V8.81343V8.81382V8.8142V8.81458V8.81497V8.81535V8.81573V8.81611V8.81649V8.81687V8.81726V8.81764V8.81802V8.8184V8.81878V8.81915V8.81953V8.81991V8.82029V8.82067V8.82104V8.82142V8.8218V8.82218V8.82255V8.82293V8.8233V8.82368V8.82405V8.82443V8.8248V8.82518V8.82555V8.82592V8.8263V8.82667V8.82704V8.82741V8.82779V8.82816V8.82853V8.8289V8.82927V8.82964V8.83001V8.83038V8.83075V8.83112V8.83149V8.83186V8.83223V8.83259V8.83296V8.83333V8.8337V8.83406V8.83443V8.8348V8.83516V8.83553V8.83589V8.83626V8.83662V8.83699V8.83735V8.83772V8.83808V8.83844V8.83881V8.83917V8.83953V8.83989V8.84026V8.84062V8.84098V8.84134V8.8417V8.84206V8.84242V8.84278V8.84314V8.8435V8.84386V8.84422V8.84458V8.84494V8.8453V8.84566V8.84601V8.84637V8.84673V8.84708V8.84744V8.8478V8.84815V8.84851V8.84887V8.84922V8.84958V8.84993V8.85029V8.85064V8.851V8.85135V8.8517V8.85206V8.85241V8.85276V8.85312V8.85347V8.85382V8.85417V8.85453V8.85488V8.85523V8.85558V8.85593V8.85628V8.85663V8.85698V8.85733V8.85768V8.85803V8.85838V8.85873V8.85908V8.85943V8.85978V8.86013V8.86047V8.86082V8.86117V8.86152V8.86186V8.86221V8.86256V8.8629V8.86325V8.8636V8.86394V8.86429V8.86463V8.86498V8.86532V8.86567V8.86601V8.86636V8.8667V8.86705V8.86739V8.86773V8.86808V8.86842V8.86876V8.86911V8.86945V8.86979V8.87013V8.87048V8.87082V8.87116V8.8715V8.87184V8.87218V8.87252V8.87286V8.87321V8.87355V8.87389V8.87423V8.87457V8.87491V8.87525V8.87558V8.87592V8.87626V8.8766V8.87694V8.87728V8.87762V8.87795V8.87829V8.87863V8.87897V8.8793V8.87964V8.87998V8.88032V8.88065V8.88099V8.88133V8.88166V8.882V8.88233V8.88267V8.88301V8.88334V8.88368V8.88401V8.88435V8.88468V8.88502V8.88535V8.88568V8.88602V8.88635V8.88669V8.88702V8.88735V8.88769V8.88802V8.88835V8.88869V8.88902V8.88935V8.88969V8.89002V8.89035V8.89068V8.89101V8.89135V8.89168V8.89201V8.89234V8.89267V8.893V8.89334V8.89367V8.894V8.89433V8.89466V8.89499V8.89532V8.89565V8.89598V8.89631V8.89664V8.89697V8.8973V8.89763V8.89796V8.89829V8.89862V8.89895V8.89927V8.8996V8.89993V8.90026V8.90059V8.90092V8.90125V8.90157V8.9019V8.90223V8.90256V8.90289V8.90321V8.90354V8.90387V8.9042V8.90452V8.90485V8.90518V8.9055V8.90583V8.90616V8.90648V8.90681V8.90714V8.90746V8.90779V8.90812V8.90844V8.90877V8.90909V8.90942V8.90975V8.91007V8.9104V8.91072V8.91105V8.91137V8.9117V8.91202V8.91235V8.91267V8.913V8.91333V8.91365V8.91397V8.9143V8.91462V8.91495V8.91527V8.9156V8.91592V8.91625V8.91657V8.91689V8.91722V8.91754V8.91787V8.91819V8.91852V8.91884V8.91916V8.91949V8.91981V8.92013V8.92046V8.92078V8.9211V8.92143V8.92175V8.92207V8.9224V8.92272V8.92304V8.92337V8.92369V8.92401V8.92434V8.92466V8.92498V8.92531V8.92563V8.92595V8.92627V8.9266V8.92692V8.92724V8.92756V8.92789V8.92821V8.92853V8.92885V8.92918V8.9295V8.92982V8.93015V8.93047V8.93079V8.93111V8.93143V8.93176V8.93208V8.9324V8.93272V8.93305V8.93337V8.93369V8.93401V8.93433V8.93466V8.93498V8.9353V8.93562V8.93595V8.93627V8.93659V8.93691V8.93723V8.93756V8.93788V8.9382V8.93852C3.53769 9.24087 3.53748 9.54292 3.53727 9.84479C3.53678 10.5482 3.53628 11.2507 3.53847 11.9538L3.0373 8.25162ZM3.0373 8.25162H3.03332H3.02935H3.02537H3.02139H3.01742H3.01344H3.00947H3.0055H3.00152H2.99755H2.99357H2.9896H2.98563H2.98166H2.97769H2.97372H2.96975H2.96578H2.96181H2.95784H2.95387H2.9499H2.94593H2.94197H2.938H2.93403H2.93007H2.9261H2.92214H2.91817H2.91421H2.91024H2.90628H2.90232H2.89836H2.89439H2.89043H2.88647H2.88251H2.87855H2.87459H2.87063H2.86667H2.86271H2.85875H2.8548H2.85084H2.84688H2.84293H2.83897H2.83501H2.83106H2.8271H2.82315H2.81919H2.81524H2.81129H2.80733H2.80338H2.79943H2.79548H2.79153H2.78758H2.78363H2.77968H2.77573H2.77178H2.76783H2.76388H2.75993H2.75598H2.75204H2.74809H2.74414H2.7402H2.73625H2.73231H2.72836H2.72442H2.72047H2.71653H2.71258H2.70864H2.7047H2.70076H2.69682H2.69287H2.68893H2.68499H2.68105H2.67711H2.67317H2.66923H2.66529H2.66136H2.65742H2.65348H2.64954H2.64561H2.64167H2.63773H2.6338H2.62986H2.62593H2.62199H2.61806H2.61412H2.61019H2.60626H2.60232H2.59839H2.59446H2.59053H2.5866H2.58266H2.57873H2.5748H2.57087H2.56694H2.56301H2.55908H2.55516H2.55123H2.5473H2.54337H2.53944H2.53552H2.53159H2.52767H2.52374H2.51981H2.51589H2.51196H2.50804H2.50412H2.50019H2.49627H2.49234H2.48842H2.4845H2.48058H2.47666H2.47273H2.46881H2.46489H2.46097H2.45705H2.45313H2.44921H2.44529H2.44137H2.43746H2.43354H2.42962H2.4257H2.42178H2.41787H2.41395H2.41003H2.40612H2.4022H2.39829H2.39437H2.39046H2.38654H2.38263H2.37872H2.3748H2.37089H2.36698H2.36306H2.35915H2.35524H2.35133H2.34742H2.34351H2.3396H2.33568H2.33177H2.32786H2.32396H2.32005H2.31614H2.31223H2.30832H2.30441H2.3005H2.2966H2.29269H2.28878H2.28488H2.28097H2.27706H2.27316H2.26925H2.26535H2.26144H2.25754H2.25363H2.24973H2.24583H2.24192H2.23802H2.23412H2.23022H2.22631H2.22241H2.21851H2.21461H2.21071H2.20681H2.2029H2.199H2.1951H2.1912H2.1873H2.18341H2.17951H2.17561H2.17171H2.16781H2.16391H2.16002H2.15612H2.15222H2.14832H2.14443H2.14053H2.13663H2.13274H2.12884H2.12495H2.12105H2.11716H2.11326H2.10937H2.10547H2.10158H2.09769H2.09379H2.0899H2.08601H2.08212H2.07822H2.07433H2.07044H2.06655H2.06266H2.05876H2.05487H2.05098H2.04709H2.0432H2.03931H2.03542H2.03153H2.02764H2.02375H2.01987H2.01598H2.01209H2.0082H2.00431H2.00043H1.99654H1.99265H1.98876H1.98488H1.98099H1.9771H1.97322H1.96933H1.96545H1.96156H1.95768H1.95379H1.94991H1.94602H1.94214H1.93825H1.93437H1.93048H1.9266H1.92272H1.91883H1.91495H1.91107H1.90719H1.9033H1.89942H1.89554H1.89166H1.88778H1.8839H1.88001H1.87613H1.87225H1.86837H1.86449H1.86061H1.85673H1.85285H1.84897H1.84509H1.84121H1.83734H1.83346H1.82958H1.8257H1.82182H1.81794H1.81407H1.81019H1.80631H1.80243H1.79856H1.79468H1.7908H1.78693H1.78305H1.77917H1.7753H1.77142H1.76755H1.76367H1.7598H1.75592H1.75205H1.74817H1.7443H1.74042H1.73655H1.73267H1.7288H1.72492H1.72105H1.71718H1.7133H1.70943H1.70556H1.70169H1.69781H1.69394H1.69007H1.6862H1.68232H1.67845H1.67458H1.67071H1.66684H1.66297H1.65909H1.65522H1.65135H1.64748H1.64361H1.63974H1.63587H1.632H1.62813H1.62426H1.62039H1.61652H1.61265H1.60878H1.60491H1.60104H1.59718H1.59331H1.58944H1.58557H1.5817H1.57783H1.57397H1.5701H1.56623H1.56236H1.55849H1.55463H1.55076H1.54689H1.54303H1.53916H1.53529H1.53142H1.52756H1.52369H1.51983H1.51596H1.51209H1.50823H1.50436H1.5005H1.49663H1.49276H1.4889H1.48503H1.48117H1.4773H1.47344H1.46957H1.46571H1.46184H1.45798H1.45412H1.45025H1.44639H1.44252H1.43866H1.43479H1.43093H1.42707H1.4232H1.41934H1.41548H1.41161H1.40775H1.40389H1.40002H1.39616H1.3923H1.38843H1.38457H1.38071H1.37685H1.37298H1.36912H1.36526H1.3614H1.35753H1.35367H1.34981H1.34595H1.34209H1.33823H1.33436H1.3305H1.32664H1.32278H1.31892H1.31506H1.31119H1.30733H1.30347H1.29961H1.29575H1.29189H1.28803H1.28417H1.28031H1.27645H1.27259H1.26873H1.26487H1.261H1.25714H1.25328H1.24942H1.24556H1.2417H1.23784H1.23398H1.23012H1.22626H1.2224H1.21854H1.21468H1.21082H1.20696H1.20311H1.19925H1.19539H1.19153H1.18767H1.18381H1.17995H1.17609H1.17223H1.16837H1.16451H1.16065H1.15679H1.15293H1.14908H1.14522H1.14136H1.1375H1.13364H1.12978H1.12592H1.12206H1.1182H1.11435H1.11049H1.10663H1.10277H1.09891H1.09505H1.09119H1.08733H1.08348H1.07962H1.07576H1.0719H1.06804H1.06418H1.06032H1.05647H1.05261H1.04875H1.04489H1.04103H1.03168C0.956083 8.25163 0.928103 8.25163 0.902887 8.24834C0.773021 8.23041 0.697844 8.18485 0.648364 8.13279C0.595367 8.07702 0.538738 7.97829 0.510339 7.8042L0.510298 7.80395M3.0373 8.25162L0.510298 7.80395M0.510298 7.80395C0.47929 7.61448 0.517482 7.46866 0.630338 7.32361L0.630581 7.3233C0.825117 7.07285 1.02222 6.82165 1.2202 6.56933C1.7238 5.92751 2.23306 5.27848 2.72008 4.61644M0.510298 7.80395L4.49685 12.2329M4.49685 12.2329C6.16401 10.0772 7.79003 7.89187 9.3528 5.65746L9.35291 5.6573C9.44855 5.52067 9.48798 5.40808 9.49753 5.31296C9.50682 5.22045 9.49147 5.10981 9.42175 4.96843L9.42163 4.96818C9.36656 4.85635 9.30747 4.80774 9.25222 4.77949C9.18784 4.74658 9.0899 4.72242 8.93646 4.72242H8.93274H8.92902H8.92529H8.92157H8.91785H8.91413H8.91041H8.90669H8.90297H8.89925H8.89553H8.89181H8.88809H8.88437H8.88065H8.87693H8.87321H8.86948H8.86576H8.86204H8.85832H8.8546H8.85088H8.84716H8.84344H8.83972H8.836H8.83228H8.82856H8.82484H8.82112H8.8174H8.81368H8.80996H8.80624H8.80251H8.79879H8.79507H8.79135H8.78763H8.78391H8.78019H8.77647H8.77275H8.76903H8.76531H8.76159H8.75787H8.75415H8.75043H8.74671H8.74299H8.73927H8.73555H8.73183H8.72811H8.72439H8.72066H8.71694H8.71322H8.7095H8.70578H8.70206H8.69834H8.69462H8.6909H8.68718H8.68346H8.67974H8.67602H8.6723H8.66858H8.66486H8.66114H8.65742H8.6537H8.64998H8.64626H8.64254H8.63882H8.6351H8.63138H8.62766H8.62394H8.62022H8.6165H8.61278H8.60906H8.60534H8.60162H8.5979H8.59418H8.59046H8.58674H8.58302H8.5793H8.57558H8.57186H8.56814H8.56442H8.5607H8.55698H8.55326H8.54954H8.54582H8.5421H8.53838H8.53466H8.53094H8.52722H8.5235H8.51978H8.51606H8.51234H8.50862H8.5049H8.50118H8.49746H8.49374H8.49002H8.4863H8.48258H8.47886H8.47514H8.47142H8.4677H8.46398H8.46026H8.45654H8.45282H8.4491H8.44538H8.44166H8.43794H8.43422H8.4305H8.42678H8.42306H8.41934H8.41562H8.4119H8.40818H8.40446H8.40074H8.39702H8.3933H8.38958H8.38586H8.38214H8.37842H8.3747H8.37098H8.36726H8.36354H8.35982H8.3561H8.35238H8.34866H8.34494H8.34122H8.3375H8.33378H8.33006H8.32634H8.32262H8.3189H8.31518H8.31146H8.30774H8.30402H8.3003H8.29658H8.29286H8.28914H8.28542H8.2817H8.27798H8.27426H8.27055H8.26682H8.26311H8.25939H8.25567H8.25195H8.24823H8.24451H8.24079H8.23707H8.23335H8.22963H8.22591H8.22219H8.21847H8.21475H8.21103H8.20731H8.20359H8.19987H8.19615H8.19243H8.18871H8.18499H8.18127H8.17755H8.17383H8.17011H8.16639H8.16267H8.15895H8.15523H8.15151H8.14779H8.14407H8.14035H8.13663H8.13292H8.1292H8.12548H8.12176H8.11804H8.11432H8.1106H8.10688H8.10316H8.09944H8.09572H8.092H8.08828H8.08456H8.08084H8.07712H8.0734H8.06968H8.06596H8.06224H8.05852H8.0548H8.05108H8.04736H8.04364H8.03992H8.0362H8.03248H8.02876H8.02504H8.02133H8.01761H8.01389H8.01017H8.00645H8.00273H7.99901H7.99529H7.99157H7.98785H7.98413H7.98041H7.97669H7.97297H7.96925H7.96553H7.96181H7.95809H7.95437H7.95065H7.94693H7.94321H7.93949H7.93577H7.93205H7.92833H7.92461H7.92089H7.91717H7.91346H7.90974H7.90602H7.9023H7.89858H7.89486H7.89114H7.88742H7.8837H7.87998H7.87626H7.87254H7.86882H7.8651H7.86138H7.85766H7.85394H7.85022H7.8465H7.84278H7.83906H7.83534H7.83162H7.8279H7.82418H7.82046H7.81674H7.81302H7.8093H7.80558H7.80187H7.79815H7.79443H7.79071H7.78699H7.78327H7.77955H7.77583H7.77211H7.76839H7.76467H7.76095H7.75723H7.75351H7.74979H7.74607H7.74235H7.73863H7.73491H7.73119H7.72747H7.72375H7.72003H7.71631H7.71259H7.70887H7.70515H7.70143H7.69771H7.69399H7.69027H7.68655H7.68283H7.67911H7.67539H7.67167H7.66795H7.66424H7.66052H7.6568H7.65308H7.64936H7.64564H7.64192H7.6382H7.63448H7.63076H7.62704H7.62332H7.6196H7.61588H7.61216H7.60844H7.60472H7.601H7.59728H7.59356H7.58984H7.58612H7.5824H7.57868H7.57496H7.57124H7.56752H7.5638H7.56008H7.55636H7.55264H7.54892H7.5452H7.54148H7.53776H7.53404H7.53032H7.5266H7.52288H7.51916H7.51544H7.51172H7.508H7.50428H7.50056H7.49684H7.49312H7.4894H7.48568H7.48196H7.47824H7.47452H7.4708H7.46708H7.46336H7.45964H7.45592H7.4522H7.44848H7.44476H7.44104H7.43732H7.4336H7.42988H7.42616H7.42244H7.41872H7.415H7.41128H7.40756H7.40384H7.40012H7.3964H7.39268H7.38896H7.38524H7.38152H7.3778H7.37408H7.37036H7.36664H7.36292H7.3592H7.35548H7.35176H7.34804H7.34432H7.3406H7.33688H7.33316H7.32944H7.32572H7.322H7.31828H7.31456H7.31084H7.30712H7.3034H7.29968H7.29596H7.29224H7.28852H7.2848H7.28108H7.27735H7.27363H7.26991H7.26619H7.26247H7.25875H7.25503H7.25131H7.24759H7.24387H7.24015H7.23643H7.23271H7.22899H7.22527H7.22155H7.21783H7.21411H7.21039H7.20667H7.20295H7.19923H7.19551H7.19179H7.18807H7.18435H7.18062H7.1769H7.17318H7.16946H7.16574H7.16202H7.1583H7.15458H7.15086H7.14714H7.14342H7.1397H7.13598H7.13226H7.12854H7.12482H7.1211H7.11738H7.11366H7.10993H7.10621H7.10249H7.09877H7.09505H7.09133H7.08761H7.08389H7.08017H7.07645H7.07273H7.06901H7.06529H7.06157H7.05785H7.05412H7.0504H7.04668H7.04296H7.03924H7.03552H7.0318H6.86228C6.58614 4.72242 6.36228 4.49856 6.36228 4.22242V4.02167C6.36228 3.82854 6.36229 3.63543 6.36231 3.44235C6.36237 2.67038 6.36244 1.89879 6.3615 1.12714L6.3615 1.12653C6.3615 1.04565 6.35862 0.976815 6.35096 0.91559C6.32578 0.716381 6.16707 0.551522 6.0223 0.517578L6.02221 0.517556C5.88703 0.485836 5.79193 0.500601 5.71556 0.53366C5.6327 0.56953 5.53629 0.64294 5.43256 0.781028L5.43256 0.781036C5.34853 0.892891 5.27923 0.995331 5.20331 1.10757C5.15074 1.18529 5.09499 1.2677 5.02897 1.3612L5.02891 1.36129C4.80673 1.67577 4.58469 1.99275 4.36198 2.31068C3.8224 3.08096 3.27889 3.85685 2.72008 4.61644M4.49685 12.2329C4.34177 12.4332 4.22024 12.4948 4.07373 12.4997C3.79308 12.5089 3.53959 12.2813 3.53847 11.9539L4.49685 12.2329ZM2.72008 4.61644L2.31733 4.32014L2.72008 4.61644Z" fill="url(#paint0_linear_222_155)" stroke="#9E4A00" stroke-linejoin="round"/>
<defs>
<linearGradient id="paint0_linear_222_155" x1="5" y1="0" x2="5" y2="13" gradientUnits="userSpaceOnUse">
<stop stop-color="#F79D5B"/>
<stop offset="1" stop-color="#FCE793"/>
</linearGradient>
</defs>
</svg>
