<svg width="9" height="12" viewBox="0 0 9 12" fill="none" xmlns="http://www.w3.org/2000/svg">
<g clip-path="url(#clip0_139_169)">
<path d="M8.10915 12.0003H0.890552C0.783451 11.9668 0.669308 11.9468 0.570129 11.8969C0.178697 11.7006 0 11.3707 0 10.9386C0 8.91551 0 6.89237 0 4.86894C0 4.57367 0.0730634 4.49971 0.364143 4.49971C0.573357 4.49971 0.78257 4.49971 1.00147 4.49971C1.00147 4.17597 1.00205 3.86808 1.00147 3.5602C0.999707 2.60307 1.31045 1.76159 1.98327 1.07948C2.90082 0.149654 4.0179 -0.184943 5.29372 0.0977036C6.84008 0.440225 7.97154 1.83233 7.99413 3.43164C7.99853 3.74393 7.99677 4.05651 7.99795 4.3691C7.99795 4.41048 7.99795 4.45187 7.99795 4.5C8.24149 4.5 8.46772 4.49912 8.69396 4.5003C8.90082 4.50147 8.99912 4.59569 8.99912 4.79909C9 6.85744 9.00029 8.9158 8.99883 10.9742C8.99883 11.3146 8.87265 11.6067 8.58744 11.7983C8.4463 11.8931 8.26966 11.9348 8.10886 12.0006L8.10915 12.0003ZM6.49501 4.49648C6.49501 4.13517 6.49941 3.78414 6.49384 3.4334C6.4868 3.00576 6.35035 2.61833 6.08333 2.28609C5.57747 1.65681 4.91637 1.38796 4.12265 1.54322C3.32101 1.69995 2.79783 2.19715 2.57394 2.98434C2.43486 3.47302 2.51761 3.97815 2.50704 4.47623C2.50704 4.48181 2.51614 4.48768 2.52347 4.49619H6.49501V4.49648ZM4.49032 10.0018C4.63879 10.0018 4.78697 10.0032 4.93545 10.0015C5.16872 9.99855 5.26907 9.88026 5.24237 9.65192C5.19278 9.22575 5.14554 8.79899 5.10123 8.37223C5.09771 8.33759 5.11649 8.28799 5.14231 8.26481C5.40845 8.02648 5.52259 7.73503 5.48768 7.37636C5.43222 6.80843 4.82512 6.3802 4.27171 6.52901C3.87441 6.63585 3.61502 6.88973 3.5267 7.2886C3.44278 7.66781 3.55781 7.99684 3.85123 8.25982C3.8794 8.28506 3.90082 8.33877 3.89701 8.37605C3.85299 8.80691 3.8034 9.23719 3.75528 9.66747C3.73181 9.87674 3.83245 9.99502 4.04489 10.0006C4.19308 10.0044 4.34155 10.0015 4.49002 10.0015L4.49032 10.0018Z" fill="white"/>
</g>
<defs>
<clipPath id="clip0_139_169">
<rect width="9" height="12" fill="white"/>
</clipPath>
</defs>
</svg>
