<svg width="33" height="32" viewBox="0 0 33 32" fill="none" xmlns="http://www.w3.org/2000/svg">
<path d="M18.345 30.8183C17.659 30.4217 16.8822 30.2555 16.1467 29.9836C15.2481 30.3049 14.3426 30.6082 13.4532 30.9542C13.0027 31.1295 12.6568 31.0385 12.3236 30.7273C11.8065 30.2443 11.2434 29.8028 10.7688 29.2838C10.3873 28.867 9.93568 28.7491 9.41168 28.7154C8.64291 28.6659 7.87414 28.594 7.10538 28.5469C6.75259 28.5255 6.62389 28.284 6.50898 28.0234C6.15735 27.228 5.79767 26.4361 5.46787 25.6329C5.3587 25.3666 5.19667 25.1869 4.94502 25.0588C4.60372 24.8847 4.26703 24.6982 3.92919 24.5174C3.49367 24.2747 3.06849 24.013 2.62148 23.7962C2.30547 23.6423 2.1963 23.4277 2.20205 23.0952C2.21699 22.2268 2.19515 21.3585 2.21354 20.4901C2.22043 20.1767 2.13195 19.9307 1.9343 19.688C1.4103 19.041 0.915023 18.3715 0.391021 17.7233C0.166941 17.4469 0.140511 17.1908 0.29909 16.8751C0.682899 16.109 1.03223 15.326 1.42179 14.5633C1.56658 14.2802 1.58267 14.0229 1.50108 13.7252C1.28274 12.9288 1.08969 12.1256 0.877102 11.328C0.779426 10.964 0.86676 10.6719 1.15979 10.4259C1.83433 9.86088 2.49737 9.28347 3.17766 8.72741C3.41323 8.53531 3.53274 8.31289 3.58675 8.02306C3.73383 7.24008 3.9085 6.46159 4.06019 5.67973C4.13718 5.28206 4.34287 5.04278 4.75656 4.92708C5.56784 4.70128 6.36534 4.4283 7.17318 4.1924C7.42024 4.1205 7.5995 4.0048 7.74544 3.79248C8.21888 3.10836 8.71875 2.44333 9.19334 1.7592C9.4496 1.39074 9.78055 1.26267 10.2241 1.32109C11.0883 1.43342 11.9558 1.52329 12.8211 1.62889C13.0084 1.65136 13.1532 1.58171 13.3026 1.49409C14.0266 1.06946 14.7632 0.663923 15.4745 0.219072C15.9272 -0.0640149 16.3329 -0.0763718 16.7868 0.212332C17.3257 0.554957 17.929 0.812206 18.4358 1.19303C19.031 1.64237 19.6562 1.639 20.3341 1.53902C20.9558 1.44803 21.5832 1.39186 22.2072 1.31547C22.6186 1.26492 22.9243 1.40309 23.153 1.75021C23.5862 2.40963 24.0481 3.05106 24.4779 3.7116C24.6411 3.96323 24.8364 4.11601 25.134 4.19914C25.9178 4.41595 26.6854 4.69117 27.4737 4.88888C27.9747 5.0147 28.2298 5.29442 28.3229 5.76735C28.47 6.52225 28.6308 7.2749 28.7722 8.03092C28.8239 8.30278 28.9319 8.51958 29.148 8.71056C29.7972 9.28235 30.4246 9.8766 31.0693 10.454C31.3566 10.7113 31.4807 10.9741 31.375 11.3797C31.1555 12.2188 31.0061 13.0737 30.8084 13.9185C30.7671 14.0971 30.7855 14.2409 30.8579 14.4004C31.2244 15.2047 31.5738 16.018 31.9541 16.8167C32.1449 17.2155 32.1311 17.5402 31.8335 17.8952C31.3164 18.5119 30.8487 19.1668 30.3453 19.7959C30.204 19.9722 30.1442 20.1475 30.1465 20.3699C30.1569 21.2383 30.1339 22.1066 30.158 22.975C30.1695 23.3693 30.0523 23.6546 29.6972 23.8422C28.8595 24.2938 28.0218 24.7477 27.1829 25.1981C27.0163 25.288 26.9658 25.452 26.8991 25.6048C26.5394 26.4271 26.1809 27.2505 25.827 28.075C25.6971 28.3761 25.4868 28.5278 25.1421 28.5514C24.2159 28.6165 23.2931 28.7142 22.3669 28.7828C22.1773 28.7974 22.0486 28.8726 21.9199 28.9917C21.3281 29.5399 20.7157 30.069 20.1411 30.6352C19.74 31.0306 19.3287 31.1789 18.7978 30.9115C18.6622 30.843 18.5082 30.7823 18.3427 30.8194L18.345 30.8183Z" fill="#FEC244"/>
<path d="M16.1479 3.74194C22.7589 3.74981 28.2103 9.03971 28.1747 15.5878C28.1391 21.9685 22.7749 27.3628 15.9916 27.2741C9.5186 27.1898 3.97866 22.0269 4.11425 15.2463C4.23951 8.99365 9.43357 3.80597 16.1479 3.74307V3.74194Z" fill="#E5AF3D"/>
<path d="M23.2921 14.033C23.2829 14.3352 23.1151 14.488 22.9462 14.643C22.0521 15.4709 21.1627 16.3045 20.263 17.1268C20.0779 17.2953 20.0136 17.4435 20.0687 17.7053C20.3193 18.9095 20.5295 20.1228 20.7651 21.3304C20.826 21.6404 20.7502 21.8887 20.4916 22.0684C20.2572 22.2324 20.0377 22.1325 19.8136 22.0111C18.7116 21.4146 17.6027 20.8316 16.5042 20.2317C16.2571 20.0969 16.0663 20.0767 15.8032 20.2261C14.7644 20.8181 13.7095 21.3809 12.6592 21.9516C12.4064 22.0886 12.134 22.2448 11.8594 22.0426C11.579 21.8348 11.5629 21.5393 11.6284 21.2079C11.8628 20.0284 12.0639 18.8433 12.3029 17.6649C12.3501 17.4346 12.2926 17.3043 12.1317 17.156C11.2239 16.3224 10.3253 15.4777 9.41863 14.643C9.18421 14.4273 9.00724 14.1869 9.12215 13.8701C9.23017 13.568 9.50941 13.5084 9.81508 13.4758C10.9654 13.3511 12.1133 13.1939 13.2636 13.0726C13.6555 13.031 13.8933 12.8917 14.0588 12.5187C14.5254 11.4673 15.0413 10.436 15.532 9.39467C15.6641 9.11495 15.8158 8.87118 16.1801 8.87343C16.5225 8.87568 16.6202 9.13517 16.7409 9.37557C17.2672 10.4315 17.8165 11.4774 18.3106 12.5479C18.4795 12.9153 18.7231 13.0254 19.0885 13.0658C20.2963 13.1972 21.5006 13.3545 22.7083 13.4859C23.0956 13.5286 23.2518 13.7432 23.2932 14.0341L23.2921 14.033Z" fill="#FEC244"/>
</svg>
