<svg width="23" height="23" viewBox="0 0 23 23" fill="none" xmlns="http://www.w3.org/2000/svg">
<path d="M11.5 22.7965C17.8513 22.7965 23 17.6933 23 11.3983C23 5.10317 17.8513 0 11.5 0C5.14873 0 0 5.10317 0 11.3983C0 17.6933 5.14873 22.7965 11.5 22.7965Z" fill="url(#paint0_linear_2021_129)"/>
<mask id="mask0_2021_129" style="mask-type:luminance" maskUnits="userSpaceOnUse" x="0" y="0" width="23" height="23">
<path d="M11.5 22.7965C17.8513 22.7965 23 17.6933 23 11.3983C23 5.10317 17.8513 0 11.5 0C5.14873 0 0 5.10317 0 11.3983C0 17.6933 5.14873 22.7965 11.5 22.7965Z" fill="white"/>
</mask>
<g mask="url(#mask0_2021_129)">
<path d="M19.1301 15.03C18.6635 15.9005 17.9224 16.5942 16.9206 17.1246C15.9189 17.6551 14.6426 17.9135 13.1193 17.9135H10.0042V25H6.27148V6.54248H13.1331C14.574 6.54248 15.7954 6.78731 16.8109 7.27697C17.8264 7.76664 18.5812 8.44672 19.0889 9.31724C19.5967 10.1877 19.8437 11.1535 19.8437 12.2552C19.8437 13.2481 19.6104 14.1731 19.1438 15.03H19.1301ZM15.2464 14.2275C15.7405 13.765 15.9875 13.0985 15.9875 12.2552C15.9875 10.4598 14.972 9.56207 12.9409 9.56207H9.97673V14.9348H12.9409C13.9702 14.9348 14.7387 14.7035 15.2327 14.2275H15.2464Z" fill="#F9FDFF"/>
</g>
<defs>
<linearGradient id="paint0_linear_2021_129" x1="0" y1="11.3983" x2="23" y2="11.3983" gradientUnits="userSpaceOnUse">
<stop stop-color="#18F4AC"/>
<stop offset="1" stop-color="#08CED7"/>
</linearGradient>
</defs>
</svg>
